<svg width="100" height="100" viewBox="0 0 100 100" fill="none" xmlns="http://www.w3.org/2000/svg">
<rect width="51" height="31" rx="5" transform="matrix(1 0 0 -1 6 66)" fill="white"/>
<path d="M89 47.0359C91.6667 48.5755 91.6667 52.4245 89 53.9641L50.75 76.0478C48.0833 77.5874 44.75 75.6629 44.75 72.5837V28.4164C44.75 25.3372 48.0833 23.4127 50.75 24.9523L89 47.0359Z" fill="white"/>
<rect width="45" height="27" rx="5" transform="matrix(1 0 0 -1 9 64)" fill="#D43232"/>
<path d="M84.5987 47.9136C86.5721 49.0732 86.5721 51.9268 84.5987 53.0865L51.5199 72.5255C49.52 73.7008 47 72.2588 47 69.9391V31.0609C47 28.7413 49.52 27.2992 51.5199 28.4745L84.5987 47.9136Z" fill="#D43232"/>
</svg>
