<svg width="51" height="38" viewBox="0 0 51 38" fill="none" xmlns="http://www.w3.org/2000/svg">
<g clip-path="url(#clip0_290_9710)">
<path d="M5.06363 37.1741C6.57019 36.4709 7.1169 35.4632 7.31452 33.0252C7.64121 28.9953 9.15142 25.665 11.8003 23.1325C14.2949 20.7477 17.033 19.4789 20.4729 19.1136C22.1387 18.9367 38.4374 18.8915 38.4374 19.0638C38.4374 19.1253 37.2906 20.3451 35.8889 21.7744C34.335 23.3589 33.2471 24.5994 33.1013 24.953C32.8048 25.6721 32.7916 27.1083 33.0751 27.7958C33.6709 29.2408 35.2167 30.1917 36.7418 30.0516C37.2209 30.0076 37.8507 29.8504 38.1413 29.7022C38.4319 29.5541 41.2732 26.8098 44.455 23.604C50.7975 17.2138 50.977 16.9854 50.9799 15.3166C50.9805 14.7805 50.864 14.1571 50.6858 13.7473C50.2792 12.8118 38.7954 1.19085 37.9124 0.820788C35.5343 -0.174944 32.8687 1.61119 32.8687 4.2005C32.8687 5.64974 33.2374 6.21207 36.0265 9.01567L38.553 11.5554L28.8547 11.6179C18.0939 11.6873 18.1837 11.6795 14.7023 12.8485C10.9872 14.0959 6.92636 17.0559 4.49896 20.2862C2.85458 22.4743 1.31711 25.695 0.672326 28.3023C-0.0368078 31.1696 -0.189453 34.2185 0.319271 35.3531C0.639113 36.0666 1.54266 36.9346 2.29852 37.2546C3.01252 37.5569 4.32563 37.5186 5.06363 37.1741Z" fill="#D92626"/>
</g>
<defs>
<clipPath id="clip0_290_9710">
<rect width="51" height="38" fill="white"/>
</clipPath>
</defs>
</svg>
