<svg width="64" height="64" viewBox="0 0 64 64" fill="none" xmlns="http://www.w3.org/2000/svg">
<path d="M9.92277 58.725C8.45979 58.4363 7.20356 57.4844 6.49349 56.1264L6.07079 55.3182L6.03525 37.2753L6 19.2325L22.4712 19.2373C37.269 19.2408 38.9836 19.2202 39.3541 19.029C39.5805 18.912 41.3609 18.1273 43.3103 17.2854L46.8549 15.7546H58.7593L58.7249 35.5359L58.6905 55.3173L58.3429 56.0536C57.6964 57.4228 56.4504 58.3861 54.9015 58.7147C54.0523 58.8949 10.836 58.904 9.92479 58.7242L9.92277 58.725ZM28.4237 52.553C32.4919 51.8635 36.2645 49.1535 38.318 45.4458C39.1012 44.0316 39.6895 42.1411 39.9432 40.2224L40.0273 39.5864H36.2897C34.2341 39.5864 32.1871 39.6246 31.7408 39.6713L30.9295 39.7561L30.4508 40.7248C29.8502 41.9402 29.1082 42.7118 28.0665 43.2045C27.0436 43.6883 26.0511 43.8175 24.9791 43.6066C23.9157 43.3974 23.2654 43.0599 22.433 42.2853C21.8234 41.718 20.9992 40.3401 20.9988 39.8878C20.9988 39.7572 20.0091 39.7204 16.4964 39.7204H11.9938L12.0851 40.4233C12.6838 45.0176 15.5957 49.1863 19.6255 51.2181C22.4275 52.6308 25.3493 53.074 28.4237 52.553ZM27.1402 41.1098C28.8627 40.2514 29.1423 38.033 27.693 36.7237C25.7616 34.9788 22.7393 36.7635 23.2885 39.3245C23.5422 40.5067 24.6955 41.4515 25.8929 41.458C26.2153 41.4598 26.7215 41.3184 27.1402 41.1098ZM19.8194 37.9799C20.7051 37.9799 20.8854 37.9425 20.9488 37.7456C21.5204 35.9708 22.3851 34.8898 23.7846 34.2008C24.591 33.8038 24.7888 33.7625 25.8828 33.7625C26.9251 33.7625 27.2009 33.8139 27.894 34.1373C29.2496 34.7697 30.2738 35.9618 30.7645 37.4778L30.9272 37.9799H35.3943C37.851 37.9799 39.8906 37.932 39.9267 37.8735C40.0583 37.6607 39.737 35.7443 39.3945 34.6997C38.1012 30.7552 35.5746 27.8496 31.9411 26.1285C28.9443 24.7089 25.5005 24.4017 22.3212 25.2705C18.6441 26.2752 15.1235 29.2131 13.4286 32.6915C12.8069 33.9672 12.2292 35.8984 12.0831 37.19L11.9955 37.9677L12.9828 38.0241C13.5259 38.0552 15.0493 38.058 16.3682 38.0303C17.6871 38.0027 19.2399 37.9799 19.8194 37.9799Z" fill="#D92626"/>
<path d="M6.01758 13.773C6.01758 9.60126 6.07335 9.23546 6.89158 8.04764C7.15798 7.66092 7.68766 7.13295 8.06896 6.87436C9.47786 5.91887 7.75797 5.97858 32.7356 6.01789L55.221 6.05328L55.9575 6.40479C56.9971 6.90098 57.7109 7.57219 58.2429 8.55346L58.7023 9.40042L58.7471 11.7099L58.7922 14.0195H46.3671L42.3427 15.76L38.3179 17.5005H6.01816L6.01758 13.773ZM14.9789 14.8255C15.9991 14.5329 16.6071 13.4529 16.3303 12.4251C16.1661 11.8156 15.4685 11.142 14.864 11.0092C13.4694 10.7029 12.199 12.0767 12.5774 13.4819C12.768 14.1899 13.6049 14.866 14.3864 14.9434C14.4609 14.9505 14.7272 14.8977 14.9789 14.8255ZM23.4411 14.6126C24.833 13.8927 24.7111 11.8654 23.2353 11.1952C22.5292 10.8745 22.161 10.8776 21.4905 11.2098C20.1721 11.863 19.9621 13.3789 21.0496 14.3946C21.6614 14.966 22.5933 15.0509 23.4411 14.6126ZM30.1124 14.6555C31.784 13.7983 31.4246 11.3565 29.5758 11.0097C28.2697 10.7647 27.0747 12.129 27.4323 13.4569C27.6463 14.2517 28.4649 14.8975 29.319 14.9452C29.4326 14.9511 29.7893 14.8212 30.1124 14.6555Z" fill="#D92626"/>
</svg>
