<svg width="64" height="64" viewBox="0 0 64 64" fill="none" xmlns="http://www.w3.org/2000/svg">
<g clip-path="url(#clip0_299_9687)">
<path d="M21.7447 58.3412C21.2435 58.2751 21.0608 58.1772 20.7329 57.7977C20.4523 57.4734 20.3436 57.064 20.417 56.6077C20.5091 56.0356 20.8406 55.7894 23.3489 54.4358C27.3848 52.2577 28.9627 50.9914 29.7973 49.26C30.0672 48.7002 30.185 47.454 30.1513 45.5348L30.1301 44.2104L29.0207 43.8181C27.3591 43.2306 26.6859 42.8544 25.4733 41.8357C24.6796 41.1689 23.7861 40.6893 22.3228 40.1446C18.0516 38.5548 15.638 37.163 13.014 34.7777C10.1115 32.1388 7.97745 28.7792 6.66601 24.7836C5.60928 21.5647 5.1322 18.6544 5.04838 14.9135L5 12.7643L8.64854 12.7636C12.1567 12.7628 14.0405 12.7217 14.7831 12.6303L15.1327 12.5867V12.2243C15.1327 12.0249 15.0562 10.9475 14.9688 9.82988C14.7498 7.11668 14.5656 4.14043 14.6122 4.06292C14.6333 4.02863 22.3819 4 31.8322 4H49.0148L48.9616 4.73034C48.7736 7.21063 48.6596 8.91293 48.5846 10.3432C48.5362 11.2383 48.4829 12.1491 48.4625 12.3671L48.425 12.7636H58.5514L58.4982 14.9545C58.42 18.1615 58.2095 19.944 57.6175 22.4114C55.9596 29.3205 51.966 34.6904 45.9931 38.0414C44.8436 38.6862 43.6186 39.241 42.0072 39.847C40.1187 40.5571 39.2352 41.0191 37.857 42.0176C36.2912 43.152 34.804 43.8925 33.6503 44.1123L33.3573 44.1682L33.3948 46.2226C33.4323 48.0066 33.4559 48.3491 33.6096 48.8255C34.1734 50.6128 36.1634 52.2932 40.1644 54.3596C42.5644 55.5992 43.0748 56.0358 43.1365 56.9016C43.1686 57.3199 43.1528 57.4174 42.9758 57.6161C42.526 58.1475 41.2611 58.2225 30.8671 58.3337C22.5954 58.4222 22.3707 58.4239 21.7447 58.3412ZM20.4679 34.9435C19.4558 32.72 18.767 30.7968 18.002 28.0584C17.1641 25.0586 16.6329 22.6002 15.9958 18.7736L15.5722 16.228L14.1389 16.1758C11.8512 16.0921 8.26765 16.0813 8.26935 16.1579C8.29051 17.0525 8.69025 19.7436 9.01747 21.1829C10.5354 27.8611 14.1381 32.6536 19.8962 35.6539C20.6543 36.0488 20.8467 36.1201 20.8682 36.0134C20.8845 35.9404 20.7025 35.4591 20.4679 34.9435ZM43.8146 35.5476C45.9046 34.4824 47.9655 32.8655 49.7465 30.8936C52.133 28.2514 53.5663 25.3122 54.5247 21.096C54.8991 19.4487 55.3273 16.4123 55.2209 16.1559C55.1834 16.075 53.225 16.0754 50.0499 16.1566L47.9494 16.2104L47.7213 17.6383C46.5313 25.0971 45.078 30.5437 43.1822 34.6508C42.8496 35.3727 42.5763 36.0008 42.5763 36.0468C42.5763 36.1572 42.7766 36.0771 43.8146 35.5476ZM33.7982 33.061C37.8113 31.9688 40.4262 28.149 39.9479 24.0784C39.867 23.395 39.5982 22.24 39.4927 22.1253C39.4606 22.0975 36.4622 23.4412 35.2952 24.0033L34.7108 24.2848L34.6497 25.0047C34.6177 25.4006 34.5325 25.879 34.4602 26.0677C33.9959 27.2761 32.7858 28.0348 31.486 27.9329C30.786 27.8778 30.2613 27.639 29.7301 27.1326L29.3017 26.7245L26.9391 27.7719C25.6395 28.348 24.5765 28.863 24.5765 28.9165C24.5765 28.9703 24.7564 29.2741 24.9765 29.5923C26.2711 31.4647 28.0115 32.6733 30.0823 33.138C31.0286 33.3503 32.8755 33.312 33.7982 33.061ZM24.6793 27.6986C24.9187 27.6034 25.952 27.1483 26.9766 26.687L28.8392 25.8486V25.1282C28.8392 24.3157 28.9656 23.8624 29.3618 23.2811C29.7168 22.7605 30.0893 22.4599 30.6807 22.2172C31.1139 22.0394 31.2819 22.015 31.8576 22.0457C32.6922 22.0897 33.3186 22.3759 33.8926 22.9739L34.2872 23.3856L36.6656 22.3147C37.9738 21.7258 39.044 21.2037 39.044 21.1547C39.044 20.8987 38.3395 19.8997 37.688 19.2316C36.5255 18.0398 35.3963 17.3676 33.7989 16.9167C33.2682 16.7668 32.9481 16.7389 31.7711 16.74C30.4895 16.7411 30.3131 16.7601 29.6345 16.9681C28.1362 17.4275 27.0681 18.0664 26.0393 19.1187C25.0623 20.118 24.4605 21.1357 24.0216 22.5308C23.5884 23.9086 23.5075 25.1817 23.7651 26.5772C23.8872 27.2385 24.0843 27.8715 24.1683 27.8715C24.2167 27.8715 24.441 27.7937 24.6793 27.6986ZM32.6408 26.3325C33.8284 25.5343 33.3805 23.5946 31.963 23.3973C30.5034 23.1941 29.5986 24.9978 30.6035 26.1079C31.0983 26.6545 32.012 26.7552 32.6408 26.3325Z" fill="#D92626"/>
</g>
<defs>
<clipPath id="clip0_299_9687">
<rect width="64" height="64" fill="white"/>
</clipPath>
</defs>
</svg>
