<svg width="117" height="139" viewBox="0 0 117 139" fill="none" xmlns="http://www.w3.org/2000/svg">
<rect x="1" y="1" width="114.698" height="137" rx="12.7442" fill="#B4B4D2" fill-opacity="0.3"/>
<rect x="1" y="1" width="114.698" height="137" rx="12.7442" stroke="#B4B4D2" stroke-width="2" stroke-linecap="round" stroke-dasharray="6.37 6.37 6.37 12.74"/>
<path fill-rule="evenodd" clip-rule="evenodd" d="M23.8723 92.7681L23.836 92.768H23.9087L23.8723 92.7681ZM26.6102 84.4353H31.8375C31.6451 80.207 28.1526 76.8379 23.8723 76.8379C19.5921 76.8379 16.0996 80.207 15.9072 84.4353H21.1038C21.2768 83.0702 22.4435 82.0147 23.857 82.0147C25.2705 82.0147 26.4372 83.0702 26.6102 84.4353Z" fill="#B4B4D2" fill-opacity="0.5"/>
<path fill-rule="evenodd" clip-rule="evenodd" d="M21.1345 85.172H15.9073C16.0995 89.4004 19.5921 92.7695 23.8724 92.7695C28.1527 92.7695 31.6453 89.4004 31.8375 85.172H26.641C26.468 86.537 25.3013 87.5926 23.8878 87.5926C22.4743 87.5926 21.3076 86.537 21.1345 85.172Z" fill="#B4B4D2" fill-opacity="0.5"/>
<ellipse cx="23.8567" cy="84.7869" rx="2.0087" ry="2.0066" fill="#B4B4D2" fill-opacity="0.5"/>
<path fill-rule="evenodd" clip-rule="evenodd" d="M60.0641 15.9374H65.2911C65.0988 11.709 61.6062 8.33984 57.326 8.33984C53.0457 8.33984 49.5531 11.709 49.3608 15.9374H54.5576C54.7307 14.5723 55.8973 13.5167 57.3108 13.5167C58.7243 13.5167 59.891 14.5723 60.0641 15.9374Z" fill="#B4B4D2" fill-opacity="0.5"/>
<path fill-rule="evenodd" clip-rule="evenodd" d="M57.3255 8.33832C57.3901 8.33832 57.4544 8.33909 57.5186 8.34061H57.1324C57.1966 8.33909 57.261 8.33832 57.3255 8.33832ZM54.5876 16.6733H49.3605C49.554 20.9006 53.046 24.2686 57.3255 24.2686C61.605 24.2686 65.0971 20.9006 65.2905 16.6733H60.0941C59.921 18.0384 58.7544 19.094 57.3409 19.094C55.9274 19.094 54.7607 18.0384 54.5876 16.6733Z" fill="#B4B4D2" fill-opacity="0.5"/>
<ellipse cx="57.3103" cy="16.2859" rx="2.0087" ry="2.0066" fill="#B4B4D2" fill-opacity="0.5"/>
<path fill-rule="evenodd" clip-rule="evenodd" d="M90.7793 49.7564C90.7474 49.7564 90.7155 49.7562 90.6836 49.7558H90.875C90.8431 49.7562 90.8112 49.7564 90.7793 49.7564ZM93.5169 41.4231H98.7444C98.5518 37.195 95.0594 33.8262 90.7793 33.8262C86.4992 33.8262 83.0068 37.195 82.8142 41.4231H88.0105C88.1837 40.0582 89.3503 39.0028 90.7637 39.0028C92.177 39.0028 93.3437 40.0582 93.5169 41.4231Z" fill="#B4B4D2" fill-opacity="0.5"/>
<path fill-rule="evenodd" clip-rule="evenodd" d="M88.0412 42.1591H82.8141C83.0063 46.3876 86.4989 49.7568 90.7793 49.7568C95.0596 49.7568 98.5522 46.3876 98.7444 42.1591H93.5477C93.3746 43.5242 92.2079 44.5798 90.7944 44.5798C89.3809 44.5798 88.2142 43.5242 88.0412 42.1591Z" fill="#B4B4D2" fill-opacity="0.5"/>
<ellipse cx="90.7637" cy="41.7752" rx="2.0087" ry="2.0066" fill="#B4B4D2" fill-opacity="0.5"/>
<path fill-rule="evenodd" clip-rule="evenodd" d="M58.4706 111.518H63.6976C63.5053 107.29 60.0128 103.921 55.7325 103.921C51.4522 103.921 47.9596 107.29 47.7673 111.518H52.9641C53.1369 110.153 54.3037 109.097 55.7174 109.097C57.131 109.097 58.2978 110.153 58.4706 111.518Z" fill="#B4B4D2" fill-opacity="0.5"/>
<path fill-rule="evenodd" clip-rule="evenodd" d="M52.9948 112.25H47.7678C47.96 116.479 51.4526 119.848 55.7329 119.848C60.0132 119.848 63.5057 116.479 63.698 112.25H58.5013C58.3282 113.615 57.1615 114.671 55.748 114.671C54.3345 114.671 53.1679 113.615 52.9948 112.25Z" fill="#B4B4D2" fill-opacity="0.5"/>
<ellipse cx="55.7173" cy="111.868" rx="2.0087" ry="2.0066" fill="#B4B4D2" fill-opacity="0.5"/>
<path fill-rule="evenodd" clip-rule="evenodd" d="M23.8723 49.7564C23.8404 49.7564 23.8085 49.7562 23.7766 49.7558H23.968C23.9362 49.7562 23.9043 49.7564 23.8723 49.7564ZM26.6099 41.4231H31.8374C31.6448 37.195 28.1524 33.8262 23.8723 33.8262C19.5922 33.8262 16.0998 37.195 15.9072 41.4231H21.1035C21.2767 40.0582 22.4433 39.0028 23.8567 39.0028C25.2701 39.0028 26.4367 40.0582 26.6099 41.4231Z" fill="#B4B4D2" fill-opacity="0.5"/>
<path fill-rule="evenodd" clip-rule="evenodd" d="M21.1341 42.1591H15.9072C16.0993 46.3876 19.5919 49.7568 23.8723 49.7568C28.1526 49.7568 31.6452 46.3876 31.8374 42.1591H26.6406C26.4675 43.5242 25.3008 44.5798 23.8873 44.5798C22.4738 44.5798 21.3071 43.5242 21.1341 42.1591Z" fill="#B4B4D2" fill-opacity="0.5"/>
<ellipse cx="23.8567" cy="41.7752" rx="2.0087" ry="2.0066" fill="#B4B4D2" fill-opacity="0.5"/>
<path fill-rule="evenodd" clip-rule="evenodd" d="M92.3723 92.7681L92.336 92.768H92.4087L92.3723 92.7681ZM95.1105 84.4353H100.337C100.145 80.207 96.6526 76.8379 92.3723 76.8379C88.0921 76.8379 84.5996 80.207 84.4072 84.4353H89.604C89.7771 83.0702 90.9438 82.0147 92.3573 82.0147C93.7708 82.0147 94.9374 83.0702 95.1105 84.4353Z" fill="#B4B4D2" fill-opacity="0.5"/>
<path fill-rule="evenodd" clip-rule="evenodd" d="M89.6343 85.172H84.407C84.5993 89.4004 88.0919 92.7695 92.3722 92.7695C96.6525 92.7695 100.145 89.4004 100.337 85.172H95.1408C94.9677 86.537 93.801 87.5926 92.3875 87.5926C90.9741 87.5926 89.8074 86.537 89.6343 85.172Z" fill="#B4B4D2" fill-opacity="0.5"/>
<ellipse cx="92.3568" cy="84.7869" rx="2.0087" ry="2.0066" fill="#B4B4D2" fill-opacity="0.5"/>
<g clip-path="url(#clip0_303_11616)">
<path d="M47.6257 93.7906C47.1517 93.7282 46.9789 93.6356 46.6687 93.2766C46.4033 92.9698 46.3005 92.5826 46.3699 92.151C46.457 91.6099 46.7705 91.377 49.1431 90.0967C52.9605 88.0365 54.4529 86.8387 55.2423 85.2011C55.4976 84.6717 55.609 83.4929 55.5771 81.6776L55.5571 80.4249L54.5077 80.0538C52.9361 79.4981 52.2993 79.1423 51.1524 78.1787C50.4017 77.5481 49.5566 77.0944 48.1725 76.5792C44.1326 75.0755 41.8496 73.7591 39.3677 71.5029C36.6224 69.0069 34.6038 65.8291 33.3634 62.0499C32.3639 59.0053 31.9126 56.2525 31.8334 52.7142L31.7876 50.6814L35.2386 50.6807C38.5568 50.68 40.3386 50.6411 41.041 50.5546L41.3717 50.5134V50.1706C41.3717 49.982 41.2993 48.9629 41.2167 47.9058C41.0095 45.3395 40.8353 42.5244 40.8793 42.4511C40.8993 42.4187 48.2284 42.3916 57.1671 42.3916H73.4193L73.369 43.0824C73.1912 45.4284 73.0833 47.0385 73.0124 48.3914C72.9667 49.238 72.9162 50.0995 72.8969 50.3057L72.8615 50.6807H82.4396L82.3893 52.753C82.3153 55.7863 82.1162 57.4723 81.5562 59.8062C79.9881 66.3412 76.2108 71.4203 70.5612 74.5899C69.474 75.1998 68.3153 75.7246 66.7911 76.2978C65.0049 76.9694 64.1692 77.4064 62.8656 78.3508C61.3846 79.4238 59.9779 80.1242 58.8867 80.3321L58.6096 80.385L58.6451 82.3281C58.6805 84.0156 58.7028 84.3396 58.8482 84.7902C59.3815 86.4807 61.2637 88.0701 65.0481 90.0246C67.3181 91.1971 67.801 91.6101 67.8593 92.429C67.8896 92.8247 67.8748 92.9169 67.7073 93.1048C67.2819 93.6074 66.0855 93.6783 56.2542 93.7835C48.4303 93.8673 48.2178 93.8688 47.6257 93.7906ZM46.418 71.6597C45.4607 69.5566 44.8092 67.7375 44.0857 65.1474C43.2931 62.31 42.7907 59.9847 42.1881 56.3654L41.7874 53.9576L40.4317 53.9082C38.2679 53.8291 34.8783 53.8188 34.8799 53.8912C34.9 54.7374 35.278 57.2828 35.5876 58.6442C37.0233 64.9608 40.4309 69.4938 45.8773 72.3317C46.5943 72.7052 46.7763 72.7726 46.7967 72.6718C46.8121 72.6027 46.6399 72.1474 46.418 71.6597ZM68.5007 72.2311C70.4775 71.2236 72.4268 69.6943 74.1115 67.8291C76.3687 65.33 77.7244 62.5499 78.6309 58.562C78.985 57.0038 79.3901 54.1319 79.2894 53.8894C79.254 53.8129 77.4016 53.8132 74.3984 53.8901L72.4116 53.9409L72.1959 55.2915C71.0703 62.3464 69.6957 67.4982 67.9025 71.3829C67.588 72.0657 67.3294 72.6598 67.3294 72.7033C67.3294 72.8078 67.5189 72.7319 68.5007 72.2311ZM59.0266 69.8792C62.8224 68.8461 65.2958 65.2331 64.8433 61.3829C64.7668 60.7365 64.5126 59.6441 64.4128 59.5356C64.3825 59.5093 61.5464 60.7802 60.4426 61.3118L59.8898 61.5782L59.832 62.259C59.8017 62.6335 59.7211 63.086 59.6528 63.2645C59.2136 64.4075 58.069 65.1251 56.8395 65.0288C56.1775 64.9766 55.6812 64.7508 55.1787 64.2717L54.7735 63.8858L52.5388 64.8764C51.3097 65.4213 50.3041 65.9085 50.3041 65.9591C50.3041 66.01 50.4743 66.2973 50.6825 66.5983C51.9071 68.3693 53.5532 69.5124 55.5119 69.952C56.4069 70.1528 58.1538 70.1166 59.0266 69.8792ZM50.4014 64.8071C50.6278 64.717 51.6052 64.2866 52.5744 63.8503L54.3361 63.0573V62.3759C54.3361 61.6074 54.4556 61.1786 54.8304 60.6288C55.1662 60.1364 55.5185 59.852 56.0779 59.6225C56.4876 59.4544 56.6465 59.4312 57.1911 59.4602C57.9805 59.5019 58.5729 59.7726 59.1159 60.3382L59.4892 60.7277L61.7387 59.7147C62.9761 59.1576 63.9884 58.6639 63.9884 58.6175C63.9884 58.3753 63.322 57.4304 62.7058 56.7985C61.6062 55.6712 60.5382 55.0355 59.0272 54.609C58.5253 54.4672 58.2225 54.4408 57.1093 54.4418C55.897 54.4428 55.7301 54.4609 55.0883 54.6575C53.6711 55.0921 52.6608 55.6964 51.6877 56.6918C50.7637 57.6369 50.1945 58.5996 49.7793 59.9191C49.3695 61.2223 49.2931 62.4264 49.5367 63.7464C49.6522 64.3719 49.8386 64.9707 49.9181 64.9707C49.9639 64.9707 50.176 64.8971 50.4014 64.8071ZM57.9318 63.515C59.0552 62.76 58.6315 60.9253 57.2907 60.7387C55.9101 60.5465 55.0544 62.2526 56.0049 63.3025C56.4729 63.8195 57.3371 63.9148 57.9318 63.515Z" fill="#B4B4D2"/>
</g>
<defs>
<clipPath id="clip0_303_11616">
<rect width="60.5349" height="60.5349" fill="white" transform="translate(27.0582 38.6064)"/>
</clipPath>
</defs>
</svg>
