<svg width="64" height="64" viewBox="0 0 64 64" fill="none" xmlns="http://www.w3.org/2000/svg">
<path fill-rule="evenodd" clip-rule="evenodd" d="M32 57C45.8071 57 57 45.8071 57 32C57 18.1929 45.8071 7 32 7C18.1929 7 7 18.1929 7 32C7 45.8071 18.1929 57 32 57ZM32 51.9999C43.0457 51.9999 52 43.0456 52 31.9999C52 20.9542 43.0457 11.9999 32 11.9999C20.9543 11.9999 12 20.9542 12 31.9999C12 43.0456 20.9543 51.9999 32 51.9999Z" fill="#D92626"/>
<path fill-rule="evenodd" clip-rule="evenodd" d="M28.7778 17.2222C28.7778 15.9949 29.7727 15 31 15C32.2273 15 33.2223 15.9949 33.2223 17.2222V20.4221C34.2622 20.5148 35.2417 20.7283 36.1609 21.0625C37.4561 21.502 38.5084 22.0686 39.3179 22.7625C39.9886 23.2944 40.3239 23.9073 40.3239 24.6011C40.3239 25.1099 40.1274 25.5725 39.7342 25.9888C39.341 26.4051 38.8785 26.6133 38.3465 26.6133C37.9996 26.6133 37.6874 26.5092 37.4098 26.301C37.0398 25.9772 36.5425 25.6766 35.9181 25.399C35.2936 25.0984 34.6345 24.8555 33.9406 24.6705C33.2468 24.4624 32.5992 24.3583 31.9979 24.3583C31.0034 24.3583 30.1592 24.4855 29.4654 24.7399C28.7947 24.9943 28.2858 25.3412 27.9389 25.7807C27.592 26.2201 27.4185 26.7289 27.4185 27.3071C27.4185 28.0009 27.6151 28.5791 28.0083 29.0417C28.4246 29.4811 29.0144 29.8396 29.7776 30.1172C30.5408 30.3716 31.4544 30.6028 32.5183 30.811C33.9059 31.0654 35.1202 31.3661 36.1609 31.713C37.2248 32.0599 38.1037 32.5109 38.7975 33.066C39.4913 33.5979 40.0117 34.2802 40.3586 35.1128C40.7056 35.9223 40.879 36.9168 40.879 38.0963C40.879 39.5996 40.4627 40.8948 39.6301 41.9818C38.7975 43.0688 37.6989 43.9014 36.3344 44.4796C35.3582 44.9004 34.3209 45.168 33.2223 45.2826V46.6667C33.2223 47.894 32.2273 48.8889 31 48.8889C29.7727 48.8889 28.7778 47.894 28.7778 46.6667V45.0533C28.3685 44.9716 27.9732 44.8729 27.592 44.7572C26.2968 44.3409 25.0595 43.6239 23.88 42.6063C23.5793 42.3519 23.348 42.0628 23.1861 41.739C23.0242 41.4152 22.9433 41.0914 22.9433 40.7676C22.9433 40.2356 23.1283 39.7731 23.4983 39.3799C23.8915 38.9636 24.3772 38.7555 24.9554 38.7555C25.3948 38.7555 25.788 38.8942 26.1349 39.1718C27.0138 39.8887 27.8811 40.4322 28.7368 40.8023C29.6157 41.1723 30.6911 41.3573 31.9632 41.3573C32.8189 41.3573 33.6053 41.2301 34.3222 40.9757C35.0392 40.6982 35.6174 40.3397 36.0568 39.9003C36.4963 39.4377 36.716 38.9173 36.716 38.3391C36.716 37.6453 36.5078 37.0555 36.0915 36.5699C35.6752 36.0842 35.0392 35.6794 34.1835 35.3556C33.3277 35.0087 32.2407 34.7427 30.9224 34.5577C29.6735 34.3727 28.5749 34.0952 27.6267 33.7251C26.6784 33.3319 25.8805 32.8463 25.2329 32.2681C24.6085 31.6667 24.1344 30.9729 23.8106 30.1865C23.4868 29.3771 23.3249 28.4751 23.3249 27.4806C23.3249 25.9772 23.7065 24.6936 24.4697 23.6298C25.2561 22.5659 26.3084 21.7564 27.6267 21.2013C27.9993 21.0444 28.383 20.9097 28.7778 20.7972V17.2222ZM21.5556 32.2222C21.5556 33.7564 20.3119 35 18.7778 35C17.2437 35 16 33.7564 16 32.2222C16 30.6881 17.2437 29.4445 18.7778 29.4445C20.3119 29.4445 21.5556 30.6881 21.5556 32.2222ZM46 35C47.5342 35 48.7778 33.7564 48.7778 32.2222C48.7778 30.6881 47.5342 29.4445 46 29.4445C44.4659 29.4445 43.2222 30.6881 43.2222 32.2222C43.2222 33.7564 44.4659 35 46 35Z" fill="#D92626"/>
</svg>
