<svg width="64" height="64" viewBox="0 0 64 64" fill="none" xmlns="http://www.w3.org/2000/svg">
<path fill-rule="evenodd" clip-rule="evenodd" d="M11 9C11 6.23857 13.2386 4 16 4H48.4615C51.2229 4 53.4615 6.23858 53.4615 9V31.6H44.4204C44.584 29.2125 44.0343 26.76 42.7052 24.5822L36.2456 28.9392C36.6706 29.7819 36.7828 30.7184 36.6112 31.6L35.3651 31.6C35.5922 30.7812 35.4731 29.8723 34.961 29.1131C34.0319 27.7356 32.1608 27.3729 30.7819 28.303C29.6809 29.0457 29.2265 30.3879 29.561 31.6H28.3808C28.0701 30.0098 28.7108 28.3149 30.1397 27.3511C31.8965 26.1661 34.2314 26.4998 35.591 28.051L42.0883 23.6686C38.3042 18.5739 31.1382 17.3143 25.8179 20.9029C22.1625 23.3685 20.3027 27.4992 20.5689 31.6H11V15.6769H18.9615C19.2547 15.6769 19.4923 15.4393 19.4923 15.1461C19.4923 14.853 19.2547 14.6154 18.9615 14.6154H11V9ZM11 14.6154H11V15.6769H11V14.6154ZM20.5689 31.6H11L11 47.5232H18.9615C19.2547 47.5232 19.4923 47.7608 19.4923 48.054C19.4923 48.3471 19.2547 48.5847 18.9615 48.5847H11L11 54.1999C11 56.9614 13.2386 59.2 16 59.2H48.4615C51.2229 59.2 53.4615 56.9614 53.4615 54.2L53.4615 48.5847H45.5C45.2068 48.5847 44.9692 48.3471 44.9692 48.054C44.9692 47.7608 45.2068 47.5232 45.5 47.5232H53.4615L53.4615 31.6L44.4204 31.6C44.177 35.1509 42.3557 38.558 39.1744 40.7039C33.854 44.2925 26.6881 43.0329 22.9039 37.9383L29.4012 33.5558C30.7609 35.107 33.0957 35.4407 34.8525 34.2558C35.8054 33.613 36.4078 32.6451 36.6112 31.6H35.3651C35.3651 31.6 35.3651 31.6 35.3651 31.6H29.561C29.561 31.6 29.561 31.6 29.561 31.6H28.3808L28.3808 31.6H20.5689L20.5689 31.6ZM20.5689 31.6C20.6901 33.4678 21.2525 35.3294 22.2871 37.0246L28.7466 32.6676C28.5733 32.324 28.452 31.9647 28.3808 31.6H20.5689ZM29.561 31.6C29.6454 31.906 29.7801 32.2037 29.9674 32.4813C30.8965 33.8589 32.7676 34.2215 34.1466 33.2914C34.7655 32.8739 35.1802 32.2669 35.3651 31.6H29.561ZM40.7231 4.00009C40.7231 5.11531 40.5034 6.21962 40.0767 7.24995C39.6499 8.28028 39.0243 9.21647 38.2358 10.005C37.4472 10.7936 36.511 11.4192 35.4807 11.8459C34.4503 12.2727 33.346 12.4924 32.2308 12.4924C31.1156 12.4924 30.0113 12.2727 28.9809 11.8459C27.9506 11.4192 27.0144 10.7936 26.2258 10.005C25.4373 9.21647 24.8117 8.28028 24.3849 7.24995C23.9582 6.21962 23.7385 5.11531 23.7385 4.00009L32.2308 4.00009H40.7231ZM37.5385 14.6154C37.2453 14.6154 37.0077 14.853 37.0077 15.1461C37.0077 15.4393 37.2453 15.6769 37.5385 15.6769H41.7846C42.0778 15.6769 42.3154 15.4393 42.3154 15.1461C42.3154 14.853 42.0778 14.6154 41.7846 14.6154H37.5385ZM29.5769 15.1461C29.5769 14.853 29.8146 14.6154 30.1077 14.6154H34.3539C34.647 14.6154 34.8846 14.853 34.8846 15.1461C34.8846 15.4393 34.647 15.6769 34.3539 15.6769H30.1077C29.8146 15.6769 29.5769 15.4393 29.5769 15.1461ZM22.6769 14.6154C22.3838 14.6154 22.1462 14.853 22.1462 15.1461C22.1462 15.4393 22.3838 15.6769 22.6769 15.6769H26.9231C27.2162 15.6769 27.4539 15.4393 27.4539 15.1461C27.4539 14.853 27.2162 14.6154 26.9231 14.6154H22.6769ZM44.9692 15.1461C44.9692 14.853 45.2068 14.6154 45.5 14.6154H53.4615V15.6769H45.5C45.2068 15.6769 44.9692 15.4393 44.9692 15.1461ZM23.7384 59.1999C23.7384 58.0847 23.958 56.9804 24.3848 55.95C24.8116 54.9197 25.4371 53.9835 26.2257 53.1949C27.0143 52.4064 27.9505 51.7808 28.9808 51.354C30.0112 50.9273 31.1155 50.7076 32.2307 50.7076C33.3459 50.7076 34.4502 50.9273 35.4805 51.354C36.5109 51.7808 37.4471 52.4064 38.2356 53.1949C39.0242 53.9835 39.6498 54.9197 40.0765 55.95C40.5033 56.9804 40.723 58.0847 40.723 59.1999H32.2307H23.7384ZM26.923 48.5847C27.2162 48.5847 27.4538 48.3471 27.4538 48.054C27.4538 47.7608 27.2162 47.5232 26.923 47.5232H22.6769C22.3838 47.5232 22.1461 47.7608 22.1461 48.054C22.1461 48.3471 22.3838 48.5847 22.6769 48.5847H26.923ZM29.5769 48.0538C29.5769 47.7607 29.8145 47.5231 30.1077 47.5231H34.3538C34.6469 47.5231 34.8846 47.7607 34.8846 48.0538C34.8846 48.347 34.6469 48.5846 34.3538 48.5846H30.1077C29.8145 48.5846 29.5769 48.347 29.5769 48.0538ZM41.7846 48.5846C42.0777 48.5846 42.3153 48.347 42.3153 48.0538C42.3153 47.7607 42.0777 47.5231 41.7846 47.5231H37.5384C37.2453 47.5231 37.0077 47.7607 37.0077 48.0538C37.0077 48.347 37.2453 48.5846 37.5384 48.5846H41.7846Z" fill="#FF0000"/>
</svg>
