<svg width="15" height="15" viewBox="0 0 15 15" fill="none" xmlns="http://www.w3.org/2000/svg">
<path d="M2.23823 13.2458C1.90823 13.1807 1.62487 12.9659 1.46471 12.6596L1.36936 12.4773L1.36134 8.40752L1.35339 4.33771L5.06869 4.33878C8.40655 4.33958 8.79331 4.33493 8.87686 4.2918C8.92793 4.2654 9.32952 4.08841 9.76926 3.89851L10.5688 3.55322H13.254L13.2462 8.01517L13.2385 12.4771L13.1601 12.6432C13.0142 12.952 12.7332 13.1693 12.3838 13.2435C12.1923 13.2841 2.44423 13.2861 2.23868 13.2456L2.23823 13.2458ZM6.41136 11.8536C7.329 11.6981 8.17996 11.0868 8.64316 10.2505C8.81982 9.93148 8.95252 9.50506 9.00975 9.07227L9.02871 8.92882H8.18565C7.72197 8.92882 7.26026 8.93743 7.15959 8.94795L6.97659 8.96708L6.8686 9.18559C6.73313 9.45974 6.56577 9.63379 6.33081 9.74492C6.10006 9.85404 5.87621 9.8832 5.63438 9.83562C5.39453 9.78844 5.24783 9.71229 5.06009 9.53758C4.92259 9.40961 4.73666 9.09881 4.73658 8.99679C4.73658 8.96733 4.51335 8.95903 3.72101 8.95903H2.70538L2.72597 9.11758C2.86102 10.1539 3.51783 11.0942 4.42682 11.5525C5.05883 11.8712 5.71789 11.9711 6.41136 11.8536ZM6.12187 9.27242C6.5104 9.07881 6.57346 8.57842 6.24654 8.28308C5.81089 7.8895 5.12918 8.29206 5.25306 8.86974C5.31027 9.13639 5.57043 9.34951 5.84052 9.35098C5.91324 9.35138 6.02742 9.31948 6.12187 9.27242ZM4.47055 8.56644C4.67033 8.56644 4.711 8.558 4.7253 8.51359C4.85424 8.11325 5.04928 7.86943 5.36496 7.71402C5.54686 7.62446 5.59148 7.61514 5.83824 7.61514C6.07334 7.61514 6.13555 7.62673 6.2919 7.69968C6.59766 7.84234 6.82868 8.11123 6.93938 8.45318L6.97607 8.56643H7.98369C8.53783 8.56643 8.99789 8.55563 9.00603 8.54243C9.03572 8.49443 8.96324 8.06217 8.88599 7.82654C8.59427 6.9368 8.02435 6.2814 7.20476 5.89319C6.5288 5.57299 5.75201 5.50369 5.03487 5.69965C4.20545 5.92628 3.41133 6.58897 3.02902 7.37357C2.88879 7.66131 2.75848 8.09693 2.72552 8.38827L2.70577 8.56368L2.92846 8.57642C3.05096 8.58343 3.39459 8.58405 3.69207 8.57781C3.98958 8.57157 4.33983 8.56644 4.47055 8.56644Z" fill="#D92626"/>
<path d="M1.35724 3.10634C1.35724 2.16534 1.36982 2.08283 1.55438 1.8149C1.61447 1.72767 1.73395 1.60858 1.81996 1.55025C2.13775 1.33473 1.74981 1.3482 7.38385 1.35706L12.4558 1.36505L12.6219 1.44433C12.8564 1.55626 13.0174 1.70766 13.1374 1.929L13.241 2.12004L13.2511 2.64098L13.2613 3.16194H10.4586L9.55087 3.55454L8.64303 3.94713H1.35737L1.35724 3.10634ZM3.3786 3.34374C3.6087 3.27774 3.74585 3.03414 3.68341 2.8023C3.64638 2.66482 3.48902 2.51288 3.35266 2.48293C3.0381 2.41383 2.75155 2.72371 2.83689 3.04068C2.8799 3.20038 3.06867 3.35287 3.24493 3.37033C3.26175 3.37193 3.32182 3.36002 3.3786 3.34374ZM5.28734 3.29571C5.60132 3.13334 5.57382 2.67605 5.24094 2.52489C5.08166 2.45254 4.99862 2.45323 4.84737 2.52817C4.55 2.67551 4.50263 3.01745 4.74792 3.24654C4.88593 3.37543 5.09613 3.39459 5.28734 3.29571ZM6.79216 3.3054C7.16921 3.11205 7.08815 2.56127 6.67113 2.48303C6.37651 2.42776 6.10695 2.7355 6.18762 3.03504C6.23589 3.21432 6.42054 3.35999 6.61319 3.37075C6.63882 3.37208 6.71928 3.34277 6.79216 3.3054Z" fill="#D92626"/>
</svg>
