<svg width="64" height="64" viewBox="0 0 64 64" fill="none" xmlns="http://www.w3.org/2000/svg">
<path d="M35.37 56.838C29.9462 57.2483 25.8894 56.3746 21.0687 53.7574C16.4976 51.2756 13.1677 47.8857 10.9475 43.4507L10.1996 41.9601L18.1967 39.5909L26.196 37.2216L26.7329 37.8562C27.77 39.0441 30.1085 40.2154 31.8697 40.4248C33.2909 40.5938 33.9997 40.4939 35.5458 39.9124C36.583 39.5186 37.8311 38.8409 38.2748 38.413C39.3119 37.406 40.4919 35.166 40.6263 33.9051L40.8162 32.9124L48.8953 30.5197L56.9697 28.1276L57.162 29.4607C57.4308 31.5386 57.162 35.5305 56.7587 37.6457C55.299 44.1139 51.3212 49.781 45.8053 53.2646C43.1433 54.9455 38.286 56.6241 35.4685 56.8369L35.37 56.838Z" fill="#D92626"/>
<path d="M8.48114 35.577C8.23146 34.764 8.26987 31.1356 8.48114 29.215C10.0944 17.5788 20.0218 8.51668 31.6587 8.05766C34.5089 7.94626 39.438 8.84855 42.1268 9.97652C46.7458 11.9146 51.0363 15.6438 53.5984 19.9485L54.8292 22.0256L46.7243 24.5159L38.6218 27.0067L37.97 26.4551C35.9092 24.7033 33.6641 24.1755 30.885 24.787C29.0989 25.18 28.6427 25.4072 27.4058 26.5457C26.5799 27.3009 25.6771 28.5449 25.27 29.5025L24.5596 31.1527L16.5368 33.5296C10.8748 35.2065 8.48463 35.8088 8.41549 35.5754L8.48114 35.577Z" fill="#D92626"/>
<path d="M33.6593 36.7511C36.0271 36.0497 37.3775 33.5618 36.676 31.1939C35.9746 28.826 33.487 27.475 31.1192 28.1764C28.7513 28.8779 27.3999 31.3662 28.1013 33.734C28.8027 36.1019 31.2914 37.4526 33.6593 36.7511Z" fill="#D92626"/>
</svg>
