<svg width="70" height="90" viewBox="0 0 70 90" fill="none" xmlns="http://www.w3.org/2000/svg">
<path fill-rule="evenodd" clip-rule="evenodd" d="M0.700522 5.32959C0.700522 2.56817 2.9391 0.32959 5.70052 0.32959L64.2956 0.32959C67.057 0.32959 69.2956 2.56817 69.2956 5.32959V44.9164L54.6896 44.9164C54.9539 41.0596 54.0659 37.0978 51.9187 33.5796L41.4838 40.618C42.1705 41.9793 42.3518 43.4922 42.0745 44.9164H40.0615C40.4283 43.5937 40.2359 42.1253 39.4087 40.8989C37.9077 38.6736 34.885 38.0877 32.6574 39.5902C30.8788 40.7899 30.1447 42.9583 30.6851 44.9164H28.7785C28.2767 42.3475 29.3116 39.6094 31.6201 38.0524C34.458 36.1381 38.2299 36.6772 40.4264 39.1831L50.9229 32.1032C44.8098 23.873 33.2334 21.8381 24.6385 27.6354C18.7333 31.6186 15.7289 38.2917 16.159 44.9164H0.700522L0.700522 19.1931L13.5621 19.1931C14.0356 19.1931 14.4195 18.8093 14.4195 18.3357C14.4195 17.8622 14.0356 17.4783 13.5621 17.4783H0.700522L0.700522 5.32959ZM0.700522 17.4783H0.700497V19.1931L0.700522 19.1931L0.700522 17.4783ZM16.159 44.9164L16.159 44.9164H28.7785L28.7785 44.9164H16.159ZM69.2955 72.3546V84.5032C69.2955 87.2646 67.0569 89.5032 64.2955 89.5032L48.717 89.5032C48.717 87.7016 48.3621 85.9176 47.6727 84.2532C46.9832 82.5887 45.9727 81.0763 44.6988 79.8024C43.4248 78.5285 41.9125 77.5179 40.248 76.8285C38.5835 76.139 36.7996 75.7842 34.998 75.7842C33.1963 75.7842 31.4124 76.139 29.7479 76.8285C28.0834 77.5179 26.5711 78.5285 25.2971 79.8024C24.0232 81.0763 23.0127 82.5887 22.3232 84.2532C21.6338 85.9176 21.2789 87.7016 21.2789 89.5032L5.70044 89.5032C2.93902 89.5032 0.700439 87.2646 0.700439 84.5032L0.700439 44.9164H16.159C16.3549 47.9337 17.2634 50.941 18.9347 53.6795L29.3696 46.6411C29.0896 46.086 28.8936 45.5056 28.7785 44.9164L30.6851 44.9164C30.8215 45.4107 31.0391 45.8916 31.3417 46.3402C32.8427 48.5655 35.8653 49.1514 38.0929 47.6488C39.0929 46.9743 39.7627 45.9937 40.0615 44.9164L42.0745 44.9164C41.7459 46.6048 40.7728 48.1683 39.2333 49.2067C36.3954 51.1209 32.6235 50.5819 30.427 48.0759L19.9305 55.1559C26.0436 63.386 37.62 65.4209 46.2149 59.6236C51.3543 56.157 54.2965 50.6529 54.6896 44.9164L69.2955 44.9164V70.6397L56.434 70.6398C55.9604 70.6398 55.5766 71.0236 55.5766 71.4972C55.5766 71.9707 55.9604 72.3546 56.434 72.3546L69.2955 72.3546ZM69.2955 72.3546V70.6397L69.2956 70.6398L69.2956 72.3546L69.2955 72.3546ZM54.6896 44.9164L42.0745 44.9164L42.0745 44.9164L54.6896 44.9164V44.9164ZM40.0615 44.9164C40.0615 44.9164 40.0615 44.9164 40.0615 44.9164L30.6851 44.9164C30.6851 44.9164 30.6851 44.9164 30.6851 44.9164H40.0615ZM48.7171 0.329704C48.7171 2.13131 48.3623 3.91528 47.6728 5.57974C46.9834 7.24421 45.9729 8.75658 44.6989 10.0305C43.425 11.3044 41.9126 12.315 40.2482 13.0044C38.5837 13.6939 36.7997 14.0487 34.9981 14.0487C33.1965 14.0487 31.4125 13.6939 29.7481 13.0044C28.0836 12.315 26.5712 11.3044 25.2973 10.0305C24.0234 8.75658 23.0128 7.24421 22.3234 5.57974C21.634 3.91527 21.2791 2.13131 21.2791 0.329703L34.9981 0.329704L48.7171 0.329704ZM43.5724 17.4783C43.0989 17.4783 42.715 17.8622 42.715 18.3357C42.715 18.8093 43.0989 19.1932 43.5724 19.1932H50.4319C50.9055 19.1932 51.2894 18.8093 51.2894 18.3357C51.2894 17.8622 50.9055 17.4783 50.4319 17.4783H43.5724ZM30.7109 18.3358C30.7109 17.8622 31.0948 17.4783 31.5683 17.4783L38.4278 17.4783C38.9014 17.4783 39.2853 17.8622 39.2853 18.3358C39.2853 18.8093 38.9014 19.1932 38.4278 19.1932L31.5683 19.1932C31.0948 19.1932 30.7109 18.8093 30.7109 18.3358ZM19.5642 17.4784C19.0906 17.4784 18.7068 17.8623 18.7068 18.3358C18.7068 18.8094 19.0906 19.1933 19.5642 19.1933L26.4237 19.1933C26.8972 19.1933 27.2811 18.8094 27.2811 18.3358C27.2811 17.8623 26.8972 17.4784 26.4237 17.4784L19.5642 17.4784ZM55.5765 18.3357C55.5765 17.8622 55.9604 17.4783 56.434 17.4783H69.2956V19.1931H56.434C55.9604 19.1931 55.5765 18.8093 55.5765 18.3357ZM26.4236 72.3546C26.8972 72.3546 27.2811 71.9707 27.2811 71.4972C27.2811 71.0236 26.8972 70.6397 26.4236 70.6397H19.5641C19.0906 70.6397 18.7067 71.0236 18.7067 71.4972C18.7067 71.9707 19.0906 72.3546 19.5641 72.3546L26.4236 72.3546ZM39.2852 71.4971C39.2852 71.9707 38.9013 72.3546 38.4278 72.3546L31.5683 72.3546C31.0947 72.3546 30.7108 71.9707 30.7108 71.4971C30.7108 71.0236 31.0947 70.6397 31.5683 70.6397H38.4278C38.9013 70.6397 39.2852 71.0236 39.2852 71.4971ZM50.4319 72.3545C50.9054 72.3545 51.2893 71.9706 51.2893 71.4971C51.2893 71.0235 50.9054 70.6396 50.4319 70.6396L43.5724 70.6396C43.0988 70.6396 42.7149 71.0235 42.7149 71.4971C42.7149 71.9706 43.0988 72.3545 43.5724 72.3545H50.4319ZM14.4195 71.4972C14.4195 71.9707 14.0356 72.3546 13.5621 72.3546L0.700516 72.3546L0.700516 70.6397L13.5621 70.6398C14.0356 70.6398 14.4195 71.0236 14.4195 71.4972Z" fill="#FF0000"/>
</svg>
