<svg width="64" height="64" viewBox="0 0 64 64" fill="none" xmlns="http://www.w3.org/2000/svg">
<g clip-path="url(#clip0_299_9688)">
<path d="M40.2916 59.3761C39.733 58.6494 37.7584 56.179 35.9036 53.8865C34.0488 51.594 32.2005 49.2887 31.7964 48.7637C30.734 47.3841 29.2182 45.5684 29.0859 45.5163C29.0208 45.4892 27.4578 46.9844 25.6068 48.8337C23.7563 50.6828 22.2134 52.1671 22.1787 52.1321C22.1244 52.0996 22.1787 51.5316 22.3088 50.8756C22.7644 48.0473 23.4554 42.7908 23.3832 42.7182C23.2314 42.5669 17.9501 42.3093 8.08442 41.9723C6.17808 41.9072 4.46593 41.7987 4.27937 41.732C4.01362 41.6371 4.93292 40.8179 8.39084 38.0588C10.839 36.1056 13.4064 34.0438 14.0968 33.4771C15.3583 32.441 18.3818 30.0179 18.935 29.599C19.1899 29.4059 18.7451 28.8862 15.7677 25.8988C13.8624 23.9874 12.3732 22.4235 12.4578 22.4235C12.5446 22.4235 14.6841 22.7191 17.2168 23.0801C19.7496 23.4413 21.8668 23.6916 21.9216 23.6366C22.0138 23.5417 22.3284 16.8701 22.6174 8.65344C22.6879 6.59259 22.8072 4.74661 22.8778 4.55122C22.9862 4.25402 23.1706 4.41238 24.0227 5.52062C24.5813 6.24928 27.2306 9.56424 29.9097 12.8876C32.5888 16.2107 34.8786 19.0614 34.9984 19.2229C35.1828 19.4724 35.7295 19.007 38.6473 16.11C40.5341 14.2365 42.102 12.7274 42.1307 12.7565C42.185 12.7836 41.8867 14.9024 41.5271 17.4606C41.1637 20.0188 40.9132 22.155 40.9658 22.2077C41.02 22.2619 42.5988 22.3671 44.4785 22.4447C46.3577 22.5222 48.9907 22.6323 50.3303 22.6893C51.6699 22.7462 54.3257 22.8482 56.232 22.9165C58.1384 22.9848 59.8456 23.0933 60.0263 23.1578C60.2812 23.25 59.9718 23.5581 58.7149 24.5882C57.813 25.3102 55.3469 27.288 53.2346 28.9832C51.1221 30.6785 49.3097 32.1295 49.2066 32.2077C49.1036 32.2858 48.4235 32.8354 47.6957 33.4287C46.9673 34.0221 46.0822 34.7334 45.7281 35.0094L45.0849 35.511L48.551 39.0107C51.7627 42.2536 51.9688 42.5021 51.3608 42.3973C50.9975 42.3355 50.031 42.1999 49.2067 42.0963C48.3824 41.9933 46.54 41.7346 45.1126 41.5216C43.6846 41.309 42.4806 41.1707 42.4367 41.2147C42.2686 41.3839 42.2198 42.1421 42.0842 46.4976C42.0083 48.9706 41.9269 51.1204 41.8944 51.275C41.8401 51.4296 41.7805 53.4529 41.7045 55.7714C41.6286 58.0899 41.5093 60.1466 41.4334 60.342C41.3249 60.6403 41.1453 60.4843 40.2916 59.3761ZM35.8846 43.4678C34.5748 39.4669 33.4739 36.1582 33.4386 36.1153C33.3844 36.0719 33.3193 36.0882 33.2542 36.1533C33.1241 36.2861 31.8761 42.3743 31.8745 42.8992C31.8729 43.2794 38.1167 51.1799 38.2068 50.9114C38.261 50.8171 37.1949 47.4689 35.8846 43.4678ZM21.173 36.16C25.1532 34.8534 28.4444 33.7575 28.4874 33.7245C28.5416 33.692 28.5416 33.6155 28.4874 33.5558C28.3518 33.4197 22.2041 32.1648 21.6949 32.1695C21.4888 32.1714 20.7301 32.6511 20.0087 33.2356C19.2874 33.8199 17.6013 35.1794 16.2617 36.2566C13.2843 38.6513 13.4134 38.5355 13.7187 38.5355C13.8543 38.5355 17.2233 37.4665 21.2036 36.1599L21.173 36.16ZM45.8399 30.4455C47.2868 29.2793 48.9919 27.9036 49.6297 27.3884C50.2669 26.8731 50.7117 26.4253 50.6173 26.3931C50.4709 26.3443 36.0436 31.0013 35.8253 31.1691C35.6138 31.3307 36.2104 31.4956 39.1157 32.0859C40.8484 32.4379 42.3523 32.7569 42.457 32.7951C42.7553 32.9031 43.0295 32.7109 45.8399 30.4455ZM31.2123 28.3719C31.2666 28.1398 31.5703 26.6436 31.8913 25.0465C32.2113 23.4494 32.5074 22.0911 32.5454 22.028C32.6647 21.8279 26.2421 13.7551 26.0861 13.9112C25.9614 14.0354 30.8153 28.7897 30.9813 28.7915C31.0572 28.7924 31.1581 28.6035 31.2123 28.3719Z" fill="#D92626"/>
</g>
<defs>
<clipPath id="clip0_299_9688">
<rect width="64" height="64" fill="white"/>
</clipPath>
</defs>
</svg>
