<svg width="465" height="465" viewBox="0 0 465 465" fill="none" xmlns="http://www.w3.org/2000/svg">
<path fill-rule="evenodd" clip-rule="evenodd" d="M311.928 221.422H464.271C458.667 98.1902 356.88 0 232.136 0C107.391 0 5.60412 98.1902 0 221.422H151.45C156.5 181.645 190.499 150.888 231.689 150.888C272.879 150.888 306.878 181.645 311.928 221.422Z" fill="#D9D9D9"/>
<path fill-rule="evenodd" clip-rule="evenodd" d="M152.344 242.85L9.15527e-05 242.85C5.60422 366.081 107.391 464.271 232.136 464.271C356.88 464.271 458.667 366.081 464.271 242.85L312.821 242.85C307.772 282.627 273.773 313.383 232.583 313.383C191.393 313.383 157.394 282.627 152.344 242.85Z" fill="#D9D9D9"/>
<ellipse cx="231.689" cy="231.689" rx="58.5416" ry="58.4803" fill="#D9D9D9"/>
</svg>
