<?xml version="1.0" encoding="UTF-8" standalone="no"?>
<!-- Created with Inkscape (http://www.inkscape.org/) -->

<svg
   width="160"
   height="160"
   viewBox="0 0 160 160"
   version="1.1"
   id="svg1"
   xml:space="preserve"
   xmlns="http://www.w3.org/2000/svg"
   xmlns:svg="http://www.w3.org/2000/svg"><defs
     id="defs1" /><g
     id="layer1"><g
       id="g54"
       transform="translate(-703.9401,-153.79324)"><path
         style="fill:#00e700;fill-opacity:1;stroke-width:0.195312"
         d="m 783.20402,153.7988 c -20.19003,0.10214 -40.1966,8.2422 -54.72755,22.25953 -13.30455,12.70021 -22.03398,30.11296 -24.14055,48.3963 -0.12395,1.48884 -0.48501,3.07565 -0.37537,4.50782 18.03449,0 36.06898,0 54.10347,0 1.22501,-5.39664 3.88639,-10.71537 8.15234,-14.40127 4.88591,-4.36219 11.36116,-7.11068 17.96613,-6.77812 7.72392,-0.20161 15.22888,3.71438 20.04318,9.65405 2.70953,3.30406 4.63299,7.2379 5.40886,11.44714 5.44639,0.1825 11.01177,0.026 16.50391,0.0782 12.54906,-0.0225 25.10055,0.0541 37.64801,-0.10452 0.12938,-1.69236 -0.35502,-3.52018 -0.49171,-5.25322 -2.8665,-23.41356 -16.81441,-45.14725 -36.86354,-57.56188 -12.87653,-8.09435 -28.00824,-12.42686 -43.22718,-12.24403 z"
         id="path51" /><path
         style="fill:#00e700;fill-opacity:1;stroke-width:0.276214"
         d="m 783.35549,216.91947 c -9.18108,-0.0106 -17.27723,8.72848 -16.45643,17.89744 0.16641,9.72172 10.21663,17.89321 19.77747,15.84863 6.92435,-0.99289 12.68226,-6.84208 13.94335,-13.65118 0.60655,-3.9449 0.12695,-8.08904 -1.97284,-11.54414 -3.01513,-5.34587 -9.1156,-8.91212 -15.29155,-8.55075 z"
         id="path52" /><path
         style="fill:#00e700;fill-opacity:1;stroke-width:0.195312"
         d="m 783.20402,313.78449 c -20.19003,-0.10214 -40.1966,-8.2422 -54.72755,-22.25953 -13.30455,-12.70021 -22.03398,-30.11296 -24.14055,-48.3963 -0.12395,-1.48884 -0.48501,-3.07565 -0.37537,-4.50782 18.03449,0 36.06898,0 54.10347,0 1.22501,5.39664 3.88639,10.71537 8.15234,14.40127 4.88591,4.36219 11.36116,7.11068 17.96613,6.77812 7.72392,0.20161 15.22888,-3.71438 20.04318,-9.65405 2.70953,-3.30406 4.63299,-7.2379 5.40886,-11.44714 5.44639,-0.1825 11.01177,-0.026 16.50391,-0.0782 12.54906,0.0225 25.10055,-0.0541 37.64801,0.10452 0.12938,1.69236 -0.35502,3.52018 -0.49171,5.25322 -2.8665,23.41356 -16.81441,45.14725 -36.86354,57.56188 -12.87653,8.09435 -28.00824,12.42686 -43.22718,12.24403 z"
         id="path55" /></g></g></svg>
