<svg width="200" height="200" viewBox="0 0 200 200" fill="none" xmlns="http://www.w3.org/2000/svg">
<path fill-rule="evenodd" clip-rule="evenodd" d="M134.373 95.3846H200C197.586 42.2986 153.738 0 100 0C46.2622 0 2.41416 42.2986 0 95.3846H65.242C67.4173 78.2493 82.0635 65 99.8075 65C117.551 65 132.198 78.2493 134.373 95.3846Z" fill="#14FF00"/>
<path fill-rule="evenodd" clip-rule="evenodd" d="M65.627 104.615L2.56015e-05 104.615C2.41418 157.701 46.2622 200 100 200C153.738 200 197.586 157.701 200 104.615L134.758 104.615C132.583 121.751 117.936 135 100.193 135C82.4485 135 67.8024 121.751 65.627 104.615Z" fill="#FF0000"/>
<ellipse cx="99.8074" cy="99.8078" rx="25.2187" ry="25.1923" fill="#0019FF"/>
</svg>
