<svg width="100" height="100" viewBox="0 0 100 100" fill="none" xmlns="http://www.w3.org/2000/svg">
<mask id="mask0_1_3" style="mask-type:luminance" maskUnits="userSpaceOnUse" x="3" y="3" width="95" height="95">
<path d="M97.4882 3H3V97.4882H97.4882V3Z" fill="white"/>
</mask>
<g mask="url(#mask0_1_3)">
<path d="M66.7092 80.5282C63.341 81.8096 60.2634 82.1762 56.5391 81.7392C53.4867 81.3811 48.0945 79.4131 47.1829 78.3247C46.0614 76.9853 45.7973 80.8365 46.7679 84.377C47.1651 85.8268 48.2065 88.0776 49.0822 89.3787C51.0295 92.2722 51.0612 94.0776 49.1926 95.6403C47.2905 97.231 45.2842 96.8625 43.367 94.5699C38.9546 89.2937 37.2126 80.388 39.282 73.6852L40.0532 71.1866L35.5822 65.8404L31.3436 69.3851C29.0124 71.3347 26.7765 73.0423 26.3751 73.1799C25.4839 73.4852 23.2514 72.5971 22.4243 71.608C22.0904 71.2088 21.8908 70.0577 21.9806 69.0502C22.1438 67.2195 22.1474 67.2152 26.437 63.6279L30.7297 60.0379L29.3588 58.3985C28.0073 56.7825 27.9405 56.7635 24.727 57.0279C17.6297 57.6131 9.86725 54.5119 5.57159 49.3753C3.57037 46.9822 3.53395 44.9624 5.46273 43.3494C7.36431 41.7591 9.08125 42.1274 11.7142 44.6904C13.8958 46.814 18.3414 49.0904 20.4698 49.1738C21.67 49.2207 21.6706 49.2052 20.5138 47.822C19.6886 46.8352 19.3503 45.9377 19.3663 44.7765L19.3888 43.1302L33.4996 31.1662C45.5686 20.9333 47.8171 19.1564 49.0423 18.8831C50.4294 18.574 52.0214 19.2602 53.8382 20.9496C54.5886 21.6474 54.624 21.5624 54.4345 19.5099C54.1619 16.5555 52.8775 12.9996 51.4796 11.328C49.0456 8.41753 49.6213 5.14404 52.7368 4.178C54.8531 3.5217 56.5493 4.6225 58.5263 7.93536C61.3211 12.6181 62.3017 16.306 62.0817 21.3042C61.9988 23.1884 61.6474 25.748 61.3007 26.9921C60.7003 29.1474 60.7375 29.334 62.0842 30.9443L63.4978 32.6346L67.7799 29.0536C71.8712 25.6321 72.1305 25.4786 73.6004 25.6097C75.6935 25.7963 77.2384 27.6436 77.0517 29.7367C76.9207 31.2066 76.7238 31.4347 72.6325 34.8562L68.3504 38.4372L72.8207 43.7827L75.1446 43.6139C82.9502 43.0467 90.2043 45.8517 94.9665 51.2783C96.9812 53.5747 97.0181 55.645 95.0724 57.2721C93.2633 58.785 90.7862 58.3235 88.9312 56.128C88.1975 55.2507 86.5201 53.9774 85.2131 53.2903C82.9249 52.0871 79.0522 50.9313 78.6226 51.3232C78.5084 51.4274 78.8433 53.1701 79.367 55.1959C79.8909 57.2216 80.3036 59.974 80.2842 61.3125C80.239 64.4368 78.9474 68.774 77.1997 71.6704C74.6888 75.831 76.4301 77.191 61.1709 59.1498L47.7686 43.3035L46.2792 43.3859C44.9891 43.4572 44.7021 43.6359 44.1351 44.7206C43.7751 45.4094 43.6257 46.4988 43.8028 47.1417C44.027 47.9549 48.0278 52.9775 56.9566 63.6544C67.0368 75.708 69.6944 79.0721 69.3524 79.3437C69.1126 79.5337 67.9225 80.0666 66.7092 80.5282Z" fill="#00A3FF"/>
<path d="M21.6596 32.5119C19.8485 30.3462 19.4819 25.7108 20.862 22.4313C23.5873 15.9555 32.0182 13.9922 37.5479 18.5453L38.8423 19.611L22.3823 33.3761L21.6596 32.5119Z" fill="#00A3FF"/>
</g>
</svg>
