<svg width="100" height="100" viewBox="0 0 100 100" fill="none" xmlns="http://www.w3.org/2000/svg">
<mask id="mask0_1_3" style="mask-type:luminance" maskUnits="userSpaceOnUse" x="3" y="3" width="95" height="95">
<path d="M97.4882 3H3V97.4882H97.4882V3Z" fill="white"/>
</mask>
<g mask="url(#mask0_1_3)">
<path fill-rule="evenodd" clip-rule="evenodd" d="M50.1908 72.0849C61.8742 72.0849 71.3454 57.5138 71.3454 39.5395C71.3454 36.4932 71.0733 33.5447 70.5646 30.7483C77.7519 28.9276 84.1691 26.0907 89.4073 22.5059C94.4436 29.2361 97.3817 37.3344 97.3817 46.048C97.3817 69.4146 76.2536 88.357 50.1908 88.357C24.1281 88.357 3 69.4146 3 46.048C3 36.6742 6.4001 28.0125 12.1549 21C17.0181 24.7479 23.0929 27.7979 29.9818 29.889C29.3673 32.9383 29.0363 36.1794 29.0363 39.5395C29.0363 57.5138 38.5075 72.0849 50.1908 72.0849Z" fill="black"/>
<path fill-rule="evenodd" clip-rule="evenodd" d="M61.0099 42.7245C60.1886 45.2903 58.5665 47.0365 56.6998 47.0365C54.0037 47.0365 51.818 43.3938 51.818 38.9002C51.818 36.6708 52.356 34.6508 53.2274 33.1812C52.7673 33.0814 52.2967 33.0298 51.8182 33.0298C46.4259 33.0298 42.0546 39.5868 42.0546 47.6752C42.0546 55.7637 46.4259 62.3206 51.8182 62.3206C57.2105 62.3206 61.5818 55.7637 61.5818 47.6752C61.5818 45.9377 61.3801 44.2708 61.0099 42.7245Z" fill="black"/>
</g>
</svg>
