<svg width="100" height="100" viewBox="0 0 100 100" fill="none" xmlns="http://www.w3.org/2000/svg">
<mask id="mask0_1_3" style="mask-type:luminance" maskUnits="userSpaceOnUse" x="3" y="3" width="95" height="95">
<path d="M97.4882 3H3V97.4882H97.4882V3Z" fill="white"/>
</mask>
<g mask="url(#mask0_1_3)">
<path fill-rule="evenodd" clip-rule="evenodd" d="M71.2473 22.0131C71.9439 28.249 69.7392 38.0208 69.7392 38.0208L69.6805 38.0035C70.7743 41.4257 71.3834 45.226 71.3834 49.228C71.3834 58.9112 67.8179 67.4133 62.4472 72.2378L61.6033 79.6687C62.1631 82.0739 62.4396 84.224 62.4396 85.4999C62.4396 89.8706 59.1947 95.9999 52.4337 95.9999C45.6727 95.9999 41.8904 89.8706 41.8904 85.4999C41.8904 84.2514 42.1991 82.1657 42.7976 79.8231L41.9361 72.2378C36.5655 67.4133 33 58.9112 33 49.228C33 45.2094 33.6141 41.3942 34.7165 37.9608L34.4945 38.0256C34.4945 38.0256 32.4904 29.2296 33.1237 23.6163C33.7212 18.32 37.2362 10.808 37.2362 10.808C37.2362 10.808 38.7843 9.09969 39.9779 9.20692C41.4876 9.34256 42.7195 12.409 42.7195 12.409C42.7195 12.409 41.4537 16.2381 41.3487 18.8132C41.2341 21.6234 41.6818 23.3666 42.413 25.8036C45.2768 23.3939 48.6203 22.0104 52.1917 22.0104C55.3176 22.0104 58.2689 23.0703 60.8768 24.9504C61.7699 21.9688 62.3329 19.9907 62.1991 16.6772C62.0836 13.8165 60.6911 9.56265 60.6911 9.56265C60.6911 9.56265 62.0463 6.15606 63.7071 6.00538C65.0201 5.88626 66.7232 7.78401 66.7232 7.78401C66.7232 7.78401 70.59 16.1293 71.2473 22.0131ZM49.2672 61.8759L41.8208 49.3249C41.8208 49.3249 39.0739 47.0725 37.353 47.7561C35.1091 48.6473 35.8637 54.0315 35.8637 54.0315C35.8637 54.0315 36.3754 57.097 37.353 58.7381C39.7071 62.6906 47.7779 63.4447 47.7779 63.4447C47.7779 63.4447 48.856 63.878 49.2672 63.4447C49.6785 63.0115 49.2672 61.8759 49.2672 61.8759ZM55.1016 62.168L61.9558 49.3597C61.9558 49.3597 64.4842 47.0611 66.0683 47.7587C68.1336 48.6682 67.4391 54.1629 67.4391 54.1629C67.4391 54.1629 66.968 57.2912 66.0683 58.966C63.9013 62.9994 56.4724 63.7691 56.4724 63.7691C56.4724 63.7691 55.4801 64.2112 55.1016 63.7691C54.723 63.327 55.1016 62.168 55.1016 62.168Z" fill="black"/>
<path d="M32.0506 63.7274C36.5355 66.0125 42.5111 78.4746 37.0864 84.0816C36.2861 77.9187 22.8255 85.1862 18.4811 78.264C18.4811 78.264 34.4036 71.2045 5.30054 66.8395C10.1214 60.4017 27.6125 58.3269 32.0506 63.7274Z" fill="black"/>
<path d="M25.0888 74.7371C28.5731 73.6719 37.9513 77.1562 37.946 82.8036C34.4303 79.997 31.0756 90.5498 25.3327 89.1299C25.3327 89.1299 30.0738 77.4474 12.7246 89.8088C11.9977 84.0324 20.0622 74.1567 25.0888 74.7371Z" fill="black"/>
<path d="M71.9223 63.6441C67.7216 65.9357 62.1245 78.4329 67.2056 84.0556C67.9552 77.8754 80.5631 85.1634 84.6322 78.2217C84.6322 78.2217 69.7185 71.1423 96.9778 66.765C92.4623 60.3091 76.0793 58.2284 71.9223 63.6441Z" fill="black"/>
<path d="M78.4431 74.6848C75.1795 73.6166 66.3955 77.1107 66.4004 82.774C69.6934 79.9595 72.8356 90.5421 78.2147 89.1181C78.2147 89.1181 73.7739 77.4027 90.024 89.799C90.7049 84.0063 83.1513 74.1028 78.4431 74.6848Z" fill="black"/>
</g>
</svg>
