<svg width="100" height="100" viewBox="0 0 100 100" fill="none" xmlns="http://www.w3.org/2000/svg">
<mask id="mask0_1_3" style="mask-type:luminance" maskUnits="userSpaceOnUse" x="3" y="3" width="95" height="95">
<path d="M97.488 3H3V97.488H97.488V3Z" fill="white"/>
</mask>
<g mask="url(#mask0_1_3)">
<path d="M57.79 70.604C61.9895 64.1073 53.6184 51.229 39.093 41.839C24.567 32.4494 9.38703 30.104 5.18803 36.6009C0.98853 43.0975 9.35953 55.9759 23.885 65.3659C38.411 74.7555 53.591 77.1009 57.79 70.604Z" fill="black"/>
<path d="M45.5861 92.804C50.2899 94.0034 55.9871 87.5862 58.3121 78.471C60.6371 69.3558 58.7075 60.994 54.0037 59.794C49.2999 58.5946 43.6027 65.0119 41.2777 74.127C38.9534 83.2425 40.8823 91.604 45.5861 92.804Z" fill="black"/>
<path d="M69.228 66.494C61.8585 64.1417 60.148 48.877 65.4075 32.4C70.667 15.923 80.9045 4.472 88.2745 6.824C95.6439 9.1763 97.3544 24.441 92.095 40.918C86.8355 57.395 76.598 68.847 69.228 66.494Z" fill="black"/>
<path d="M92.759 75.897C89.8867 79.8103 81.411 78.4705 73.827 72.9043C66.2433 67.3382 62.424 59.6533 65.2962 55.7403C68.1684 51.827 76.6442 53.1668 84.2282 58.733C91.8119 64.2991 95.6312 71.984 92.759 75.897Z" fill="black"/>
<path d="M54.865 47.683C58.4866 46.3857 60.3707 42.3981 59.0734 38.7765C57.776 35.1549 53.7885 33.2707 50.1669 34.5681C46.5453 35.8654 44.6611 39.8531 45.9584 43.4746C47.2558 47.0962 51.2434 48.9804 54.865 47.683Z" fill="black"/>
</g>
</svg>
