<svg width="95" height="95" viewBox="0 0 95 95" fill="none" xmlns="http://www.w3.org/2000/svg">
<path d="M40.1433 58.5723H6.67349L5 66.9397L6.67349 80.3276C6.67349 80.3276 17.4332 92.3242 26.7554 93.7156C29.9873 94.1979 31.8655 93.9761 35.1228 93.7156C43.9836 93.0067 56.8782 87.0216 56.8782 87.0216L83.654 75.3072V63.5927H43.4903L40.1433 58.5723Z" fill="black"/>
<rect x="50.1842" y="40.1638" width="36.8168" height="16.7349" rx="1" fill="black"/>
<rect width="16.7349" height="30.1228" rx="1" transform="matrix(1 0 0 -1 66.9191 33.4697)" fill="black"/>
<rect width="16.7349" height="33.4698" rx="1" transform="matrix(1 0 0 -1 46.8372 33.4697)" fill="black"/>
<rect width="16.7349" height="50.2047" rx="1" transform="matrix(1 0 0 -1 26.7554 50.2046)" fill="black"/>
<rect width="16.7349" height="46.8577" rx="1" transform="matrix(1 0 0 -1 6.67349 50.2046)" fill="black"/>
</svg>
