<svg width="95" height="95" viewBox="0 0 95 95" fill="red" xmlns="http://www.w3.org/2000/svg">
<path d="M22.4334 89.4538C15.7512 84.9108 11.2071 80.0873 8.61204 74.7839C6.54997 70.5694 6.32584 69.1894 6.68796 62.9355C7.04512 56.7665 7.69274 54.588 11.728 45.9839C14.2745 40.5539 16.7362 34.6854 17.1984 32.943L18.0384 29.7753L19.0871 32.3905C19.6639 33.8289 20.4306 37.0541 20.7909 39.558L21.4461 44.1101L25.3485 38.9412C33.6672 27.9231 39.0909 15.1249 39.0909 6.51362V2.13428L42.4848 3.86738C50.0042 7.707 59.2607 20.0415 62.6074 30.6805C64.2996 36.0603 65.1169 36.4076 66.7702 32.4504C67.7297 30.154 68.0982 27.3994 67.8254 24.561L67.4064 20.1998L69.6174 22.2724C73.0137 25.4563 79.6554 35.8742 82.3196 42.1966C84.3808 47.0881 84.719 49.1967 84.7547 57.3801C84.7925 66.1815 84.5956 67.2813 82.081 72.2703C80.5876 75.2332 77.3294 79.7345 74.8406 82.2732C70.1959 87.0105 61.7094 93.3325 61.7268 92.0421C61.7381 91.6449 62.3431 89.3205 63.0844 86.877C64.6354 81.7645 64.8192 70.5661 63.4498 64.6205C61.9589 58.147 57.3334 49.6649 52.6049 44.733C50.2059 42.2309 47.8589 40.1836 47.3891 40.1836C46.9194 40.1836 46.3681 42.9327 46.1639 46.2928C45.9092 50.487 44.9706 54.2121 43.1702 58.1764L40.5476 63.9508L39.5259 58.8337C38.0753 51.5694 36.9161 50.8612 35.1171 56.1412C34.3048 58.5252 32.0153 63.2108 30.0295 66.5538C25.0454 74.9435 24.0125 79.8668 25.7821 86.8033C26.5428 89.7853 27.0991 92.2806 27.0186 92.3487C26.9377 92.4167 24.8749 91.1137 22.4334 89.4538Z" fill="black"/>
</svg>
