<svg width="100" height="100" viewBox="0 0 100 100" fill="none" xmlns="http://www.w3.org/2000/svg">
<path d="M20.4087 79.7884C27.1383 85.2338 45.9035 73.1995 62.3222 52.9089C78.741 32.6182 86.5957 11.7549 79.8661 6.30949C73.1365 0.86406 54.3711 12.8986 37.9524 33.1893C21.5336 53.48 13.6791 74.343 20.4087 79.7884Z" fill="black"/>
<path d="M18.3881 76.6869C20.5994 82.4413 36.4581 81.701 53.809 75.0333C71.16 68.3656 83.4329 58.2953 81.2216 52.5409C79.0102 46.7865 63.152 47.5268 45.801 54.1945C28.4501 60.8622 16.1767 70.9324 18.3881 76.6869Z" fill="black"/>
<path d="M18.2598 75.5452C17.538 80.1124 28.1166 85.5792 41.8875 87.7556C55.6584 89.932 67.407 87.9939 68.1288 83.4267C68.8506 78.8596 58.2724 73.3928 44.5014 71.2164C30.7305 69.04 18.9816 70.9781 18.2598 75.5452Z" fill="black"/>
<path d="M22.2888 70.975C16.9882 71.8308 16.8143 77.9227 21.9005 84.5815C26.9868 91.2403 35.4071 95.9446 40.7078 95.0887C46.0084 94.2329 46.1823 88.141 41.096 81.4822C36.0098 74.8234 27.5895 70.1191 22.2888 70.975Z" fill="black"/>
</svg>
