<svg width="100" height="100" viewBox="0 0 100 100" fill="none" xmlns="http://www.w3.org/2000/svg">
<path fill-rule="evenodd" clip-rule="evenodd" d="M50.3989 93.241C42.0768 93.241 34.8928 87.0391 31.5445 78.0686H31.4335L18.2555 47.3198C16.7189 44.9329 15.5963 42.352 14.9624 39.636L14.3646 38.2412L14.6851 38.2585C14.4738 37.0121 14.3646 35.7402 14.3646 34.4481C14.3646 18.7367 30.4978 6 50.3989 6C70.3001 6 86.4332 18.7367 86.4332 34.4481C86.4332 39.451 84.7975 44.1522 81.9251 48.2367L75.524 63.4395C79.0816 62.8354 82.9934 62.7358 86.2171 63.9042C90.6684 65.5176 92.1378 67.4426 94.8524 71.1378C96.9986 74.0591 97.0106 77.7568 97.0106 81.3099C97.0106 81.6291 97.0175 81.9395 97.0241 82.2393C97.0697 84.2986 97.1041 85.853 94.822 86.2831C93.5754 86.5181 92.7943 85.9062 91.9135 85.2162C91.4882 84.8831 91.0397 84.5317 90.5044 84.2487C88.9734 83.4394 88.7729 83.46 88.3039 83.5083C87.9608 83.5436 87.4739 83.5937 86.2171 83.3444C85.9254 83.2865 85.6461 83.2227 85.3783 83.1616C84.1315 82.8769 83.1355 82.6493 82.3124 83.3444C81.8453 83.7388 81.3953 84.092 80.9679 84.4274C79.2833 85.7495 77.9503 86.7956 77.3124 89C76.8237 90.6886 76.669 90.8145 75.9131 91.4296C75.6397 91.6521 75.2873 91.9389 74.8124 92.3864C73.0239 94.0718 69.8541 93.1809 67.3249 92.3864C65.3726 91.7732 61.5516 90.8943 57.9244 91.461C55.5899 92.6106 53.0522 93.241 50.3989 93.241ZM41.2416 29.5326C38.5247 28.3513 36.487 28.6613 33.6555 29.5326C32.0726 30.0196 29.8624 31.4291 29.8624 31.4291C29.8624 31.4291 29.1301 36.1449 29.863 39.0154C31.8449 46.7777 46.9319 50.3947 46.9319 50.3947C46.9319 50.3947 48.1342 41.3968 46.931 37.1189C45.7618 32.9615 45.2021 31.2546 41.2416 29.5326ZM67.7758 29.5727C65.3796 28.6563 63.6552 28.3302 61.356 29.5727C58.0044 31.384 57.5308 33.1796 56.5414 37.5526C55.5232 42.0524 56.5406 51.5171 56.5406 51.5171C56.5406 51.5171 69.308 47.7125 70.9851 39.5475C71.6054 36.5281 70.9857 31.5677 70.9857 31.5677C70.9857 31.5677 69.1153 30.0851 67.7758 29.5727Z" fill="black"/>
<path d="M33.9141 56.5265C37.521 58.5201 39.1579 60.2452 41.8412 63.1564C45.2353 66.8389 49.5937 69.3012 48.5921 73.6333C48.0321 76.055 48.5907 78.9196 46.4692 80.4623C44.5716 81.8421 43.6053 81.6899 43.0173 83.6133C42.4292 85.5368 49.064 92.7069 45.1007 89.3916C41.1375 86.0764 34.8063 85.4229 31.9104 85.3589C29.0145 85.2949 25.4154 85.1156 24.0173 82.9458C22.6191 80.776 22.3975 81.3269 22.3607 78.9384C22.3164 76.0677 20.5943 74.5663 18.7246 71.9799C17.9145 70.8593 16.4423 70.9437 14.6083 70.7214C11.302 70.3207 13.0272 69.724 9.82739 70.1946C7.84295 70.4865 6.53578 71.6517 4.68779 70.7265C2.07432 69.4181 3.09198 67.6945 3.81819 65.3192C4.84521 61.96 5.9267 58.4679 9.03349 56.3977C12.9633 53.779 15.0687 52.4326 20.2275 52.3418C24.7872 52.2616 29.8816 54.2975 33.9141 56.5265Z" fill="black"/>
</svg>
