<svg width="100" height="100" viewBox="0 0 100 100" fill="none" xmlns="http://www.w3.org/2000/svg">
<mask id="mask0_1_3" style="mask-type:luminance" maskUnits="userSpaceOnUse" x="3" y="3" width="95" height="95">
<path d="M97.4882 3H3V97.4882H97.4882V3Z" fill="white"/>
</mask>
<g mask="url(#mask0_1_3)">
<path d="M32.9228 86.7891C38.3392 79.2965 51.5317 68.5495 62.0232 63.0834C65.8215 61.1046 68.6784 59.395 68.3719 59.2843C67.4955 58.9675 54.3828 63.8631 50.3753 66.0035C45.6181 68.5441 36.5617 74.5164 33.7623 76.96C32.5393 78.0273 31.2791 78.8067 30.962 78.6921C30.6449 78.5775 31.554 75.1147 32.9822 70.9968C36.8554 59.8288 40.3874 55.4566 48.8456 51.3602C56.9893 47.4158 63.274 46.4689 76.038 47.2638C81.5574 47.6076 88.5246 47.6488 91.5204 47.3555C94.5164 47.0622 97.0445 46.8499 97.1385 46.8839C97.2325 46.9179 96.1109 48.5072 94.646 50.4157C93.181 52.3243 90.3807 57.2963 88.4226 61.4648C80.8394 77.6095 75.1527 84.9624 66.56 89.7342C58.8949 93.9907 48.0864 94.1216 36.8496 90.093C31.9876 88.35 31.8672 88.2494 32.9228 86.7891Z" fill="black"/>
<path d="M18.8508 62.2805C9.20022 57.2065 4.58859 50.6703 3.44958 40.453C2.95338 36.0028 3.57559 28.8187 4.75084 25.4298C5.35924 23.6753 6.11324 19.8162 7.19086 12.9424C7.65248 9.99776 8.11033 7.54956 8.20833 7.50177C8.30622 7.45403 9.36845 8.31456 10.5685 9.41391C12.905 11.5544 16.895 14.6965 19.6192 16.5414C23.7777 19.3574 26.7905 21.8691 29.8845 25.0994C32.5285 27.8598 33.6182 29.3719 35.1148 32.358C37.9691 38.0527 38.6958 42.0264 37.8699 47.4208C37.0855 52.5442 33.9935 61.044 33.2552 60.1064C33.1267 59.9432 32.4846 57.684 31.8281 55.0859C30.3359 49.1796 27.5808 42.0977 24.851 37.1491C21.802 31.6231 19.2684 27.9019 19.2829 28.9715C19.2863 29.2171 20.2451 31.6377 21.4136 34.3506C25.3128 43.4028 27.5369 52.6831 28.1005 62.2512C28.1923 63.808 28.1015 64.6095 27.7445 65.3943C27.5127 65.9045 22.2162 64.05 18.8508 62.2805Z" fill="black"/>
<path d="M47.3518 42.5514C46.9905 40.8483 56.3286 26.8554 57.5355 27.2916C57.6882 27.3468 57.9439 27.0118 58.104 26.5472C58.3817 25.7463 58.3282 25.7432 57.0839 26.4951C54.8434 27.8496 49.9803 32.5105 47.7398 35.4508C45.611 38.2446 45.5974 38.254 45.2292 37.1927C45.0256 36.6058 44.9579 35.8405 45.0788 35.492C45.1997 35.1435 45.1735 34.5906 45.0207 34.2635C44.8471 33.8921 45.2338 32.2166 46.0509 29.8021C47.539 25.4032 48.4841 24.1625 52.4028 21.4591C54.8503 19.7707 57.3359 18.8387 62.7365 17.5844C64.6709 17.1351 67.2878 16.4156 68.5517 15.9854C69.8155 15.5552 70.9003 15.3117 70.9622 15.4443C71.0242 15.5768 70.7703 16.6754 70.3982 17.8857C70.026 19.0959 69.4392 22.0629 69.0938 24.4789C68.3535 29.6571 67.0417 33.6884 65.2343 36.3413C63.0131 39.6013 61.3452 40.8283 57.0735 42.3451C54.0213 43.4289 47.5671 43.566 47.3518 42.5514Z" fill="black"/>
</g>
</svg>
