<svg width="100" height="100" viewBox="0 0 100 100" fill="none" xmlns="http://www.w3.org/2000/svg">
<mask id="mask0_1_3" style="mask-type:luminance" maskUnits="userSpaceOnUse" x="3" y="3" width="95" height="95">
<path d="M97.4882 3H3V97.4882H97.4882V3Z" fill="white"/>
</mask>
<g mask="url(#mask0_1_3)">
<path fill-rule="evenodd" clip-rule="evenodd" d="M9.92898 72.9308L39.8448 86.0949L46.3621 87.7242L52.8793 86.0949L84.6324 72.1223L87.0948 73.0604L90.3534 76.319L87.0948 80.8146L52.8793 95.8707L46.3621 97.5001L39.8448 95.8707L5.62931 80.8146L4 77.9483L5.62931 74.6897L9.92898 72.9308Z" fill="black"/>
<path d="M41.4741 43.7328L5.62931 58.3966L4 61.6552L5.62931 64.5215L39.8448 79.5777L46.3621 81.207L52.8793 79.5777L87.0948 64.5215L90.3534 60.0259L87.0948 56.7673L52.8793 43.7328L46.3621 42.1035L41.4741 43.7328Z" fill="black"/>
<path d="M40.4742 25.8103H32.6983C32.146 25.8103 31.6983 26.258 31.6983 26.8103V34.5862C31.6983 35.1384 32.146 35.5862 32.6983 35.5862H40.4742C41.0264 35.5862 41.4742 35.1384 41.4742 34.5862V26.8103C41.4742 26.258 41.0264 25.8103 40.4742 25.8103Z" fill="black"/>
<path d="M79.5776 16.0344H68.5431C67.9908 16.0344 67.5431 16.4821 67.5431 17.0344V28.0689C67.5431 28.6212 67.9908 29.0689 68.5431 29.0689H79.5776C80.1299 29.0689 80.5776 28.6212 80.5776 28.0689V17.0344C80.5776 16.4821 80.1299 16.0344 79.5776 16.0344Z" fill="black"/>
<path d="M27.4396 3H9.88794C9.33565 3 8.88794 3.44772 8.88794 4V21.5517C8.88794 22.104 9.33565 22.5517 9.88794 22.5517H27.4396C27.9919 22.5517 28.4396 22.104 28.4396 21.5517V4C28.4396 3.44772 27.9919 3 27.4396 3Z" fill="black"/>
</g>
</svg>
