<svg width="95" height="95" viewBox="0 0 95 95" fill="none" xmlns="http://www.w3.org/2000/svg">
<path d="M41.983 92.9008C40.1728 91.8465 39.5448 89.6161 39.5448 84.2411C39.5448 81.404 39.3656 79.0825 39.147 79.0825C38.9284 79.0825 37.0292 80.814 34.9268 82.9304C29.6887 88.204 27.8322 88.5271 23.8429 84.8612C21.29 82.5151 20.5521 81.2054 20.5521 79.0188C20.5521 77.5368 21.6277 76.2666 30.0486 67.8034C38.9524 58.8546 39.5446 58.1403 39.5446 56.3518C39.5446 54.4521 39.5322 54.4441 37.3813 54.4441C35.2653 54.4441 35.019 54.6417 26.1844 63.4269L17.151 72.4097H14.7466C12.6896 72.4097 12.034 72.1316 10.2089 70.4848C7.73646 68.2537 6.50506 65.7071 6.94035 63.7251C7.11053 62.9488 8.82656 60.7647 10.8193 58.7871C12.7844 56.8369 14.3924 55.0856 14.3924 54.8953C14.3924 54.7051 12.41 54.468 9.98732 54.3683C5.75803 54.1948 5.52219 54.1202 4.08446 52.511C2.75834 51.0267 2.58667 50.4558 2.58667 47.5303C2.58667 41.5193 4.14331 40.0714 10.6042 40.0714H14.5663L10.9546 36.3467C8.73834 34.061 7.20922 32.0131 6.99704 31.0463C6.11229 27.0181 10.6374 22.1058 15.2334 22.1058C17.0315 22.1058 17.7168 22.6681 26.1846 31.0886C35.0192 39.8738 35.2656 40.0714 37.3814 40.0714C39.5357 40.0714 39.5448 40.0631 39.5448 38.1637C39.5448 36.375 38.9526 35.6607 30.0487 26.7118C21.1143 17.7323 20.5523 17.0539 20.5523 15.2428C20.5523 13.6307 20.9797 12.8659 23.1826 10.5365C26.0386 7.51685 28.2533 6.6572 30.3796 7.74291C31.0446 8.08247 33.3787 10.1193 35.5666 12.2693L39.5446 16.1784V10.6966C39.5446 7.53972 39.8046 4.64407 40.1579 3.86889C41.0478 1.91567 43.1181 1.06006 46.9539 1.06006C49.9335 1.06006 50.4948 1.22697 51.984 2.55686C53.6521 4.04641 53.6612 4.08058 53.8373 9.55277L54.0141 15.052L57.4302 11.7069C59.3092 9.86696 61.3904 8.08359 62.0556 7.74366C64.1813 6.6572 66.396 7.51688 69.2522 10.5368C72.111 13.5594 72.5479 15.2559 71.1476 17.8963C70.7432 18.6586 66.7009 22.9756 62.1648 27.4891C54.0841 35.53 53.9171 35.7402 53.9171 37.8835C53.9171 40.0705 53.9176 40.0712 55.8479 40.0712C57.6597 40.0712 58.2855 39.562 65.9858 31.8235C70.4996 27.2873 74.8162 23.2447 75.5786 22.8407C76.3409 22.4363 77.8176 22.1056 78.8601 22.1056C80.4388 22.1056 81.1659 22.5159 83.2111 24.5612C87.4902 28.8404 87.2843 30.8904 82.0302 36.3091L78.382 40.0715H88.411L90.1562 41.8167C91.8125 43.473 91.9014 43.7473 91.9014 47.1983C91.9014 50.49 91.7596 50.9937 90.4046 52.5112C88.9173 54.1768 88.8731 54.1887 83.4748 54.3626C80.4867 54.4585 78.0421 54.6738 78.0421 54.8408C78.0421 55.0073 79.89 57.0372 82.1486 59.3513C85.7762 63.068 86.255 63.7787 86.255 65.4485C86.255 67.0186 85.8095 67.8092 83.6247 70.1196C80.6322 73.2837 78.5684 74.0121 76.1794 72.7469C75.3688 72.3176 70.7811 68.024 65.9848 63.2051C58.2553 55.4396 57.0738 54.4441 55.5904 54.4441C53.9551 54.4441 53.9165 54.4962 53.9165 56.6969C53.9165 58.9144 54.042 59.0771 61.9284 67.0914C66.3349 71.5693 70.3772 75.7839 70.9112 76.4574C72.7997 78.8383 71.8798 82.2465 68.5625 85.159C64.8521 88.4168 62.7824 88.0197 57.679 83.0709L53.9165 79.4228V84.4197C53.9165 92.0336 52.7986 93.435 46.7302 93.4286C44.6128 93.4262 42.477 93.1887 41.983 92.9008Z" fill="black"/>
</svg>
