<svg width="14" height="12" viewBox="0 0 14 12" fill="none" xmlns="http://www.w3.org/2000/svg">
<g clip-path="url(#clip0_231_11057)">
<g clip-path="url(#clip1_231_11057)">
<path d="M5.0673 9.98828C2.98189 8.20776 2.45357 7.70887 2.00986 7.10107C1.68565 6.65698 1.3106 5.89554 1.17634 5.40902C1.04127 4.9195 1.01761 4.07703 1.12494 3.57852C1.28017 2.85718 1.65299 2.18281 2.20929 1.61713C3.68983 0.111684 5.4558 0.105128 6.95872 1.59969C7.10416 1.74439 7.24237 1.86288 7.26571 1.86308C7.28899 1.86334 7.43111 1.74645 7.58141 1.60355C8.12133 1.09016 8.74824 0.740815 9.40008 0.590079C11.542 0.094746 13.8428 2.43555 13.5326 4.79441C13.432 5.55833 13.1517 6.24279 12.6381 6.97859C12.1904 7.61979 11.5148 8.23144 9.26925 10.0288C8.13735 10.9347 7.17914 11.6807 7.13996 11.6865C7.0954 11.693 6.31892 11.0569 5.0673 9.98828Z" fill="#1B1818"/>
</g>
</g>
<defs>
<clipPath id="clip0_231_11057">
<rect width="14" height="12" fill="white"/>
</clipPath>
<clipPath id="clip1_231_11057">
<rect width="16.6749" height="12.1529" fill="white" transform="translate(5.21039 -5.6001) rotate(42.5)"/>
</clipPath>
</defs>
</svg>
