<svg width="95" height="95" viewBox="0 0 95 95" fill="none" xmlns="http://www.w3.org/2000/svg">
<path fill-rule="evenodd" clip-rule="evenodd" d="M63.8272 45.3077H95C93.8533 20.0918 73.0254 0 47.5 0C21.9746 0 1.14672 20.0918 0 45.3077H30.9899C32.0232 37.1684 38.9802 30.875 47.4085 30.875C55.8369 30.875 62.7939 37.1684 63.8272 45.3077Z" fill="black"/>
<path fill-rule="evenodd" clip-rule="evenodd" d="M31.1728 49.6923L0 49.6923C1.14672 74.9082 21.9746 95 47.5 95C73.0254 95 93.8533 74.9082 95 49.6923L64.01 49.6923C62.9768 57.8316 56.0198 64.125 47.5914 64.125C39.163 64.125 32.2061 57.8316 31.1728 49.6923Z" fill="black"/>
<ellipse cx="47.4086" cy="47.4087" rx="11.9789" ry="11.9663" fill="black"/>
</svg>
