<svg width="95" height="95" viewBox="0 0 95 95" fill="none" xmlns="http://www.w3.org/2000/svg">
<path fill-rule="evenodd" clip-rule="evenodd" d="M14.732 1C19.1038 1 22.9985 3.07541 25.5134 6.30929C31.866 2.91856 39.0992 1 46.7734 1C53.6019 1 60.0811 2.51896 65.9016 5.24242C68.3976 2.62612 71.8935 1 75.7633 1C83.3473 1 89.4953 7.24563 89.4953 14.95C89.4953 18.3815 88.2757 21.5235 86.2528 23.9533C90.2528 30.8595 92.5469 38.9076 92.5469 47.5C92.5469 73.1812 72.0534 94 46.7734 94C21.4935 94 1 73.1812 1 47.5C1 39.7039 2.88858 32.356 6.22633 25.9025C3.04298 23.3477 1 19.3912 1 14.95C1 7.24563 7.14804 1 14.732 1ZM46.7734 81.6001C65.3121 81.6001 80.3406 66.333 80.3406 47.5C80.3406 28.6671 65.3121 13.4 46.7734 13.4C28.2348 13.4 13.2063 28.6671 13.2063 47.5C13.2063 66.333 28.2348 81.6001 46.7734 81.6001Z" fill="black"/>
</svg>
