<svg width="100" height="100" viewBox="0 0 100 100" fill="none" xmlns="http://www.w3.org/2000/svg">
<mask id="mask0_1_3" style="mask-type:luminance" maskUnits="userSpaceOnUse" x="3" y="3" width="95" height="95">
<path d="M97.4882 3H3V97.4882H97.4882V3Z" fill="white"/>
</mask>
<g mask="url(#mask0_1_3)">
<path d="M13.4646 83.7028C10.8018 79.4867 10.5779 79.0217 9.23217 74.9122C8.06088 71.3356 7.94127 70.5902 7.83384 66.2127C7.71428 61.3382 9.09865 55.281 11.1914 51.5233C12.5076 49.1599 15.3331 45.1633 16.5671 43.9189C17.8237 42.6621 21.5193 39.9792 23.8101 38.6778C29.409 35.4974 37.5221 34.3786 44.7102 35.7957C46.8766 36.223 49.1277 36.4165 49.7124 36.2258C50.5331 35.9584 52.3173 34.3122 57.5288 29.0148L64.2821 22.15L63.9454 20.8845C63.2961 18.4444 65.026 15.6564 67.6268 14.9517C69.3576 14.4826 70.5469 14.9469 72.4905 16.8499C74.3167 18.6464 74.9451 18.7325 75.3752 17.2685C75.7609 15.9525 77.8347 14.8161 80.1551 14.6456C84.2518 14.3458 87.2393 18.3337 85.9308 22.3557C85.4865 23.7221 84.093 25.2525 82.9763 25.6003C81.9584 25.9177 82.2855 26.4096 86.1957 30.4426C89.6726 34.0284 89.8353 34.4851 88.6235 37.2551C87.9296 38.8409 87.8202 38.952 86.3913 39.504C85.5657 39.8241 84.1843 39.997 83.3218 39.8881L81.754 39.6902L75.3436 46.2065C67.4878 54.1922 67.2374 54.6361 68.2772 58.747C68.6439 60.1969 68.9696 63.1186 69.0008 65.2393C69.095 71.6497 67.7711 76.2549 63.9162 82.9285C62.8776 84.7263 57.8407 89.8392 56.075 90.8789C52.0927 93.2398 50.7221 93.9067 47.9871 94.8134C44.2012 96.069 38.364 96.7021 35.1594 96.2047C33.7991 95.9934 32.4351 95.8107 32.1285 95.7981C31.269 95.7636 26.6006 94.1291 25.0431 93.3177C24.2777 92.9187 23.2264 92.4231 22.7068 92.2158C21.7489 91.8337 14.2152 84.8934 13.4597 83.6962L13.4646 83.7028ZM33.3631 79.0555C35.4622 79.7843 36.864 79.441 38.4738 77.8046C40.1844 76.0658 40.4587 74.233 39.3187 72.1588C38.6494 70.9407 38.3349 70.681 36.855 70.1227C32.9703 68.6575 29.0645 72.5545 30.5916 76.3718C31.2374 77.9858 31.773 78.5021 33.3631 79.0555ZM29.8087 61.9117C33.8837 63.2369 38.0089 59.0437 36.6166 54.9912C35.8818 52.8518 34.2424 51.5779 32.0261 51.4242C29.4941 51.2485 27.604 52.124 26.7442 53.871C25.0913 57.2297 26.4604 60.8229 29.8087 61.9117ZM50.9694 67.7677C53.5325 68.5757 57.3711 67.6595 59.2242 65.7972C60.1419 64.8848 61.1805 62.1542 61.2844 60.4163C61.414 58.2494 60.5236 56.1067 58.815 54.4739C55.2383 51.0569 49.7043 51.6983 46.7127 55.8771C45.3248 57.816 45.0731 59.3658 45.6885 62.1879C46.1848 64.4643 48.606 67.0223 50.9694 67.7677Z" fill="black"/>
<path d="M71.8387 12.1773C74.0447 12.7491 76.2966 11.4243 76.8684 9.21818C77.4401 7.0121 76.1153 4.76012 73.9093 4.18834C71.7032 3.61656 69.4513 4.94154 68.8795 7.14761C68.3078 9.35369 69.6326 11.6055 71.8387 12.1773Z" fill="black"/>
<path d="M84.2297 9.67467C85.6837 10.0515 87.168 9.17825 87.5449 7.72424C87.9217 6.27022 87.0484 4.78604 85.5944 4.40919C84.1404 4.03233 82.6561 4.90546 82.2793 6.35948C81.9024 7.81349 82.7757 9.29781 84.2297 9.67467Z" fill="black"/>
</g>
</svg>
