<svg width="14" height="12" viewBox="0 0 14 12" fill="none" xmlns="http://www.w3.org/2000/svg">
<g clip-path="url(#clip0_231_11334)">
<g clip-path="url(#clip1_231_11334)">
<path d="M6.13362 11.7095C4.86971 11.4483 4.00155 10.9837 3.07319 10.0715C2.19293 9.20649 1.65514 8.21554 1.4388 7.05877L1.36571 6.66988L3.34466 6.65251L5.32414 6.6353L5.40509 6.81514C5.56395 7.15391 6.02071 7.57402 6.40871 7.73695C6.72182 7.86846 6.89003 7.89203 7.2807 7.86051C7.543 7.83854 7.87202 7.76558 8.0012 7.697C8.30361 7.53515 8.71923 7.10142 8.83236 6.82263L8.9406 6.60861L10.9398 6.59127L12.9379 6.57375L12.8946 6.89038C12.82 7.3819 12.4976 8.27482 12.2673 8.73088C11.5113 10.1107 10.2334 11.1431 8.74745 11.5769C8.03037 11.7862 6.8127 11.8514 6.15615 11.7157L6.13362 11.7095Z" fill="black"/>
<path d="M1.39123 5.10169C1.38745 4.89993 1.63352 4.07486 1.80731 3.65062C2.93631 1.10211 5.79326 -0.31555 8.47747 0.340831C9.13484 0.501831 10.2001 1.03 10.7396 1.46313C11.6664 2.20727 12.401 3.33845 12.7039 4.48784L12.8488 5.04209L10.8373 5.08L8.82634 5.1182L8.71376 4.94976C8.35829 4.41543 7.88074 4.14822 7.20687 4.10593C6.77378 4.07874 6.65487 4.10073 6.2983 4.27952C6.06054 4.39775 5.77327 4.62244 5.61777 4.81422L5.34782 5.14414L3.36249 5.16157C1.96142 5.17374 1.37686 5.15479 1.37635 5.09704L1.39123 5.10169Z" fill="black"/>
<path d="M7.05705 7.01617C7.643 7.01104 8.1137 6.5319 8.10858 5.94595C8.10345 5.36001 7.62444 4.88916 7.0385 4.89429C6.45255 4.89941 5.98157 5.37856 5.98669 5.96451C5.99182 6.55045 6.47111 7.02129 7.05705 7.01617Z" fill="black"/>
</g>
</g>
<defs>
<clipPath id="clip0_231_11334">
<rect width="14" height="12" fill="white"/>
</clipPath>
<clipPath id="clip1_231_11334">
<rect width="13.0502" height="13.0502" fill="white" transform="translate(2.59711 -2.1001) rotate(16)"/>
</clipPath>
</defs>
</svg>
