<svg width="95" height="95" viewBox="0 0 95 95" fill="none" xmlns="http://www.w3.org/2000/svg">
<path d="M15.6643 70.0952C3.29538 54.4199 -0.473561 31.8085 5.89494 11.4785L6.92124 8.20172L11.7949 6.65866C28.302 1.43233 45.6164 2.38061 59.5908 9.27655C69.8171 14.3233 77.3811 21.1666 83.1248 30.5674C91.8786 44.8952 93.9751 63.4818 88.9317 82.0445L87.7435 86.4171L81.756 88.1565C67.5831 92.2735 53.6446 92.1605 41.1865 87.8278C31.7143 84.5331 21.4069 77.3723 15.6643 70.0952ZM35.362 73.1133C41.2592 76.4346 51.4239 79.6912 57.4386 80.187C63.0781 80.6516 70.9289 79.8989 75.5259 78.4526L78.6948 77.4556L79.7211 73.1511C81.9306 63.8852 80.6475 50.7691 76.714 42.4122C76.1119 41.133 75.9683 41.6935 75.8791 45.6684C75.5332 61.1111 63.9135 72.9456 48.8328 73.2147C29.8074 73.5541 16.7344 55.4218 22.8606 37.1909C24.1728 33.2855 25.0622 31.7106 27.7116 28.5996C33.3182 22.0165 39.475 19.0378 48.321 18.6285C50.7227 18.5174 52.5095 18.26 52.2918 18.0565C51.4799 17.3029 41.9657 14.9786 37.7213 14.5024C31.7712 13.835 24.2549 14.4202 19.6658 15.9083L15.8741 17.1378L14.9112 21.3867C12.7712 30.8287 13.5316 40.7455 17.1286 50.305C21.1934 61.1084 27.0463 68.43 35.362 73.1133ZM42.9884 57.8606C45.6911 59.3236 50.5255 59.5647 53.5064 58.3848C56.7091 57.117 59.972 53.7458 61.1165 50.5226C62.0738 47.8271 61.9314 42.8649 60.8299 40.525C60.0396 38.8459 55.1236 33.9539 54.684 34.4093C54.5193 34.5796 54.4968 35.5991 54.6341 36.6741C55.3477 42.2633 49.2336 47.055 43.994 45.0121C41.2465 43.9411 40.4983 43.1442 39.4896 40.2163L38.6428 37.7584L37.6146 39.3619C33.6919 45.4794 36.2254 54.1994 42.9884 57.8606Z" fill="black"/>
</svg>
