<svg width="95" height="95" viewBox="0 0 95 95" fill="none" xmlns="http://www.w3.org/2000/svg">
<path d="M59.0413 80.8756C58.9522 80.7854 58.8794 80.6334 58.8794 80.5374C58.8794 80.3904 58.5347 79.4797 58.031 78.2961C57.9649 78.1408 57.6555 77.346 57.3435 76.5302C57.0315 75.7144 56.7229 74.9197 56.6577 74.7643C56.5926 74.609 56.4299 74.1957 56.2963 73.846C55.8771 72.7489 55.841 72.6571 55.6294 72.1509C55.5158 71.8789 55.2209 71.116 54.9742 70.4556C54.7276 69.7952 54.4459 69.0641 54.3485 68.831C53.9046 67.769 53.8553 67.5989 53.9456 67.4431C54.0511 67.2612 56.3745 64.1117 56.8428 63.5158C57.003 63.3119 57.2597 62.9667 57.4133 62.7488C57.5668 62.5309 58.4132 61.4013 59.2939 60.2388C60.4999 58.6466 61.0166 58.0741 61.3881 57.9188C61.8471 57.727 62.2322 57.5533 63.9332 56.7713C64.2938 56.6055 64.6221 56.47 64.6628 56.47C64.7034 56.47 65.1623 56.2736 65.6826 56.0338C66.2029 55.7938 66.8173 55.5153 67.0476 55.4148C67.8752 55.0536 68.4567 54.7931 69.2377 54.4337C69.6743 54.2328 70.0654 54.0684 70.1068 54.0684C70.1484 54.0684 70.6078 53.872 71.128 53.6322C72.0206 53.2207 72.6928 52.9207 73.3306 52.6493C73.4841 52.5839 73.9868 52.3625 74.4476 52.1571C74.9084 51.9517 75.4896 51.6938 75.7392 51.584C75.9887 51.474 76.4007 51.2917 76.6546 51.1787C78.4573 50.376 79.4529 49.9738 79.5054 50.0269C79.5391 50.0609 79.498 50.5551 79.4178 51.125C79.3358 51.6949 79.2011 52.8923 79.1186 53.7858C78.9331 55.7912 78.7971 57.166 78.4959 60.0722C78.3671 61.3154 78.2088 62.8727 78.1444 63.5333C77.6992 68.0951 77.5922 69.0933 77.5259 69.3047C77.4662 69.4951 73.4027 72.1907 71.7452 73.1395C71.5417 73.256 71.177 73.4945 70.9351 73.6693C70.6932 73.8441 70.4537 73.9872 70.4029 73.9872C70.3521 73.9872 70.1044 74.146 69.8527 74.3403C69.601 74.5345 69.359 74.6935 69.3149 74.6935C69.2708 74.6935 67.0462 76.0787 64.3715 77.7716C61.6966 79.4645 59.4396 80.8922 59.356 80.9443C59.2723 80.9965 59.1304 80.9648 59.0413 80.8756Z" fill="black"/>
<path d="M79.6894 68.2757C79.6894 67.9308 79.7511 67.183 79.8261 66.6141C79.9014 66.0451 80.0308 64.8486 80.1138 63.9551C80.2681 62.2964 80.3339 61.6294 80.7347 57.6686C80.8605 56.4255 81.0195 54.8363 81.088 54.1369C81.359 51.3732 81.3942 51.1796 81.5781 51.4341C81.6714 51.5633 81.8501 51.8112 81.9749 51.9848C82.0997 52.1584 83.8486 54.6525 85.8613 57.5272C87.8741 60.4019 89.6023 62.8382 89.7013 62.9409C89.8006 63.0436 89.8817 63.1746 89.8817 63.2322C89.8817 63.2895 89.9937 63.4599 90.1306 63.6106C90.2675 63.7611 90.5159 64.1097 90.6828 64.3852C90.8496 64.6606 91.1146 65.0358 91.2716 65.219C91.4286 65.4022 91.5572 65.5941 91.5572 65.6452C91.5572 65.6963 91.6743 65.8655 91.8176 66.021C91.9607 66.1766 92.152 66.4438 92.2425 66.6149C92.4344 66.9777 92.3989 66.9978 91.3478 67.1208C90.9638 67.1656 90.0213 67.3011 89.2534 67.4215C86.2953 67.8858 84.2247 68.2016 82.4119 68.4653C81.9512 68.5324 81.4171 68.6216 81.2251 68.6637C81.0332 68.706 80.609 68.7769 80.2826 68.8215L79.6892 68.9026L79.6894 68.2757Z" fill="black"/>
<path d="M62.2349 81.5519C62.2349 81.4697 64.0174 80.3207 66.2143 78.9863C67.2126 78.3799 68.0503 77.8312 68.0759 77.7669C68.1014 77.7028 68.1771 77.6502 68.244 77.6502C68.3108 77.6502 70.4744 76.3135 73.0517 74.6798C75.629 73.0461 77.9724 71.5757 78.2591 71.4119C78.7944 71.1063 80.298 70.728 80.9772 70.728C81.1874 70.728 81.6272 70.6664 81.9546 70.591C82.2821 70.5156 83.2726 70.355 84.1557 70.234C85.0388 70.113 86.0756 69.9547 86.4595 69.8821C86.8435 69.8095 87.8802 69.6479 88.7633 69.523C89.6465 69.398 90.6518 69.2405 90.9974 69.1731C92.1972 68.9391 93.0917 68.8768 93.0917 69.0273C93.0917 69.1072 92.8719 69.6546 92.603 70.2433C92.3343 70.832 92.1144 71.3416 92.1144 71.3756C92.1144 71.4096 91.9938 71.7069 91.8466 72.0363C91.6993 72.3656 91.3852 73.0687 91.1485 73.5986C90.9118 74.1285 90.7181 74.5878 90.7181 74.6193C90.7181 74.6506 90.524 75.1071 90.287 75.6336C89.8802 76.5366 89.5837 77.2167 89.3155 77.8621C89.2509 78.0174 89.0321 78.5261 88.8291 78.9923C88.6261 79.4585 88.3659 80.0624 88.2509 80.3343C88.1361 80.6063 87.9934 80.9241 87.9339 81.0407C87.8406 81.2235 86.757 81.2648 80.0218 81.3417C75.7298 81.3907 69.9715 81.4717 67.2264 81.5215C64.481 81.5714 62.2349 81.5849 62.2349 81.5519Z" fill="black"/>
<path d="M10.8758 80.8756C10.7867 80.7854 10.7138 80.6334 10.7138 80.5374C10.7138 80.3904 10.3691 79.4797 9.8655 78.2961C9.7994 78.1408 9.48995 77.346 9.17795 76.5302C8.86593 75.7144 8.5574 74.9197 8.49221 74.7643C8.4271 74.609 8.26435 74.1957 8.13076 73.846C7.71161 72.7489 7.67551 72.6571 7.46391 72.1509C7.35027 71.8789 7.05541 71.116 6.80869 70.4556C6.56211 69.7952 6.28037 69.0641 6.18295 68.831C5.73911 67.769 5.68975 67.5989 5.78009 67.4431C5.88556 67.2612 8.20898 64.1117 8.67732 63.5158C8.8375 63.3119 9.09416 62.9667 9.24776 62.7488C9.40126 62.5309 10.2477 61.4013 11.1283 60.2388C12.3344 58.6466 12.8511 58.0741 13.2226 57.9188C13.6816 57.727 14.0667 57.5533 15.7677 56.7713C16.1283 56.6055 16.4566 56.47 16.4973 56.47C16.5379 56.47 16.9968 56.2736 17.5171 56.0338C18.0374 55.7938 18.6517 55.5153 18.8821 55.4148C19.7097 55.0536 20.2912 54.7931 21.0721 54.4337C21.5088 54.2328 21.8999 54.0684 21.9413 54.0684C21.9829 54.0684 22.4422 53.872 22.9625 53.6322C23.8551 53.2207 24.5272 52.9207 25.1651 52.6493C25.3186 52.5839 25.8213 52.3625 26.2821 52.1571C26.7428 51.9517 27.324 51.6938 27.5736 51.584C27.8232 51.474 28.2351 51.2917 28.4891 51.1787C30.2918 50.376 31.2874 49.9738 31.3399 50.0269C31.3736 50.0609 31.3325 50.5551 31.2523 51.125C31.1703 51.6949 31.0356 52.8923 30.9531 53.7858C30.7676 55.7912 30.6315 57.166 30.3303 60.0722C30.2016 61.3154 30.0433 62.8727 29.9789 63.5333C29.5337 68.0951 29.4267 69.0933 29.3604 69.3047C29.3007 69.4951 25.2372 72.1907 23.5796 73.1395C23.3761 73.256 23.0115 73.4945 22.7695 73.6693C22.5277 73.8441 22.2882 73.9872 22.2373 73.9872C22.1866 73.9872 21.9388 74.146 21.6871 74.3403C21.4355 74.5345 21.1934 74.6935 21.1493 74.6935C21.1053 74.6935 18.8807 76.0787 16.2059 77.7716C13.5311 79.4645 11.2741 80.8922 11.1904 80.9443C11.1068 80.9965 10.9649 80.9648 10.8758 80.8756Z" fill="black"/>
<path d="M31.5238 68.2757C31.5238 67.9308 31.5856 67.183 31.6606 66.6141C31.7359 66.0451 31.8652 64.8486 31.9483 63.9551C32.1025 62.2964 32.1684 61.6294 32.5692 57.6686C32.695 56.4255 32.854 54.8363 32.9225 54.1369C33.1934 51.3732 33.2286 51.1796 33.4126 51.4341C33.5059 51.5633 33.6845 51.8112 33.8094 51.9848C33.9342 52.1584 35.683 54.6525 37.6958 57.5272C39.7086 60.4019 41.4367 62.8382 41.5358 62.9409C41.6351 63.0436 41.7162 63.1746 41.7162 63.2322C41.7162 63.2895 41.8282 63.4599 41.9651 63.6106C42.102 63.7611 42.3504 64.1097 42.5172 64.3852C42.6841 64.6606 42.9491 65.0358 43.1061 65.219C43.2631 65.4022 43.3917 65.5941 43.3917 65.6452C43.3917 65.6963 43.5088 65.8655 43.6521 66.021C43.7952 66.1766 43.9865 66.4438 44.077 66.6149C44.2689 66.9777 44.2334 66.9978 43.1823 67.1208C42.7983 67.1656 41.8558 67.3011 41.0879 67.4215C38.1298 67.8858 36.0592 68.2016 34.2464 68.4653C33.7856 68.5324 33.2515 68.6216 33.0596 68.6637C32.8677 68.706 32.4434 68.7769 32.1171 68.8215L31.5237 68.9026L31.5238 68.2757Z" fill="black"/>
<path d="M14.0696 81.5519C14.0696 81.4697 15.8521 80.3207 18.049 78.9863C19.0473 78.3799 19.885 77.8312 19.9106 77.7669C19.9361 77.7028 20.0118 77.6502 20.0787 77.6502C20.1455 77.6502 22.3091 76.3135 24.8864 74.6798C27.4637 73.0461 29.8071 71.5757 30.0938 71.4119C30.6291 71.1063 32.1328 70.728 32.812 70.728C33.0222 70.728 33.4619 70.6664 33.7893 70.591C34.1168 70.5156 35.1073 70.355 35.9904 70.234C36.8735 70.113 37.9103 69.9547 38.2942 69.8821C38.6782 69.8095 39.7149 69.6479 40.5981 69.523C41.4812 69.398 42.4865 69.2405 42.8321 69.1731C44.032 68.9391 44.9265 68.8768 44.9265 69.0273C44.9265 69.1072 44.7066 69.6546 44.4378 70.2433C44.169 70.832 43.9491 71.3416 43.9491 71.3756C43.9491 71.4096 43.8285 71.7069 43.6813 72.0363C43.534 72.3656 43.2199 73.0687 42.9832 73.5986C42.7465 74.1285 42.5528 74.5878 42.5528 74.6193C42.5528 74.6506 42.3587 75.1071 42.1217 75.6336C41.715 76.5366 41.4184 77.2167 41.1502 77.8621C41.0856 78.0174 40.8668 78.5261 40.6638 78.9923C40.4608 79.4585 40.2006 80.0624 40.0856 80.3343C39.9708 80.6063 39.8281 80.9241 39.7686 81.0407C39.6753 81.2235 38.5917 81.2648 31.8565 81.3417C27.5645 81.3907 21.8063 81.4717 19.0611 81.5215C16.3157 81.5714 14.0696 81.5849 14.0696 81.5519Z" fill="black"/>
<path d="M45.0955 72.6622C45.0955 72.6302 45.4319 71.8419 45.8433 70.9113C46.2547 69.9807 46.5912 69.0818 46.5912 68.9139C46.5912 68.3461 45.8086 66.2166 45.4615 65.8401C45.1682 65.5219 44.6283 64.7755 43.1887 62.6987C43.0461 62.4931 42.4057 61.5891 41.7655 60.69C41.1252 59.7908 40.6532 59.0113 40.7167 58.9578C40.8289 58.8635 41.9547 58.163 47.584 54.6857C51.0333 52.5549 52.1917 52.1081 55.1181 51.7805C55.8997 51.6929 57.7845 51.4208 59.3064 51.1756C60.8284 50.9303 64.5308 50.3587 67.5339 49.9052C70.537 49.4517 74.2605 48.8763 75.8084 48.6265C77.3564 48.3767 78.8846 48.1928 79.2046 48.2179C79.7348 48.2594 79.518 48.3791 76.7642 49.5651C75.1019 50.2809 72.0926 51.5843 70.077 52.4616C68.0613 53.3389 65.4361 54.4782 64.2431 54.9936C59.448 57.0654 59.6527 56.9405 58.3401 58.6C56.0765 61.4624 51.8271 67.1918 51.8271 67.3814C51.8271 67.487 52.2644 68.6809 52.7987 70.0349C53.333 71.3888 53.7705 72.5471 53.771 72.6088C53.7715 72.6705 51.8197 72.721 49.4337 72.721C47.0478 72.721 45.0955 72.6958 45.0955 72.6622Z" fill="black"/>
<path d="M53.1868 46.5965C53.1868 45.794 53.2856 44.3316 53.4062 43.3469C53.5268 42.3622 54.2011 35.8345 54.9044 28.8412C56.2888 15.0744 56.4484 13.6467 56.6239 13.4596C56.6873 13.3918 58.8828 16.3535 61.5019 20.0416C64.121 23.7294 67.7102 28.7664 69.4782 31.2348C71.2462 33.703 72.9988 36.1677 73.3737 36.7118C73.7481 37.2559 74.4195 38.232 74.8654 38.8809C75.3114 39.5297 75.8919 40.3299 76.1555 40.659C76.4194 40.9881 76.7469 41.4593 76.8835 41.7062C77.02 41.9531 77.3998 42.4914 77.7273 42.9028C78.757 44.1957 78.805 44.1675 74.5031 44.7916C72.4463 45.09 67.5994 45.8129 63.7327 46.398C57.6589 47.3172 55.6678 47.629 53.5983 47.9852L53.1868 48.0563V46.5965Z" fill="black"/>
<path d="M6.42878 58.3661C3.05752 49.8563 1.41162 45.6193 1.41162 45.4501C1.41162 45.2458 11.279 32.0738 13.4599 29.3665C14.2222 28.4204 15.1047 27.3986 15.4211 27.0959C15.9893 26.5524 18.8857 25.1574 22.6532 23.6129C23.5171 23.2587 26.362 22.0188 28.9749 20.8574C31.5879 19.696 33.767 18.7458 33.8176 18.7458C33.8684 18.7458 34.9615 18.2809 36.2471 17.7126C37.5328 17.1443 40.7387 15.739 43.3715 14.5898C51.8641 10.8824 52.7208 10.5418 52.7208 10.8725C52.7208 10.9761 52.6192 11.8308 52.4948 12.7717C52.3704 13.7125 52.0992 16.1654 51.8922 18.2222C49.8105 38.8949 48.8058 48.489 48.6961 48.7467C48.5471 49.097 45.5846 51.1758 41.9504 53.4802C38.5935 55.6089 38.2302 55.8079 38.0939 55.5929C37.4568 54.5886 33.918 49.7141 33.8246 49.7125C33.7568 49.7125 33.2775 49.4075 32.7586 49.0373C32.2398 48.6671 31.7123 48.3641 31.5866 48.3641C31.3704 48.3641 28.0737 49.7612 23.5092 51.7872C22.3754 52.2904 21.4199 52.7022 21.3858 52.7022C21.3282 52.7022 16.8406 54.656 13.2295 56.2534C12.3656 56.6356 11.5014 57.0868 11.3091 57.256C11.1166 57.4252 10.3426 58.3644 9.58875 59.343C8.83496 60.3216 8.11386 61.2548 7.98632 61.4167C7.7682 61.6934 7.67356 61.5087 6.42878 58.3661Z" fill="black"/>
</svg>
