<svg width="114" height="113" viewBox="0 0 114 113" fill="none" xmlns="http://www.w3.org/2000/svg">
<path d="M56.9783 6.9413L68.683 22.3778L70.1578 24.3227L72.5758 23.9903L91.7676 21.3515L89.1289 40.5433L88.7964 42.9614L90.7413 44.4361L106.178 56.1409L90.7413 67.8456L88.7964 69.3204L89.1289 71.7384L91.7676 90.9302L72.5758 88.2915L70.1578 87.959L68.683 89.9039L56.9783 105.34L45.2735 89.9039L43.7988 87.959L41.3807 88.2915L22.1889 90.9302L24.8277 71.7384L25.1601 69.3204L23.2152 67.8456L7.7787 56.1409L23.2152 44.4361L25.1601 42.9614L24.8277 40.5433L22.1889 21.3515L41.3807 23.9903L43.7988 24.3227L45.2735 22.3778L56.9783 6.9413Z" fill="#B8B8D0" stroke="#202040" stroke-width="8.3442"/>
</svg>
