<svg width="95" height="95" viewBox="0 0 95 95" fill="none" xmlns="http://www.w3.org/2000/svg">
<path d="M55.3041 73.7014C47.534 71.9993 42.0189 66.1391 40.4619 57.9302C39.2265 51.4157 41.7861 44.2523 49.5247 32.5676C53.7196 26.2336 56.672 20.7594 58.4539 16.0128C59.4079 13.4711 60.4662 12.837 60.4662 14.8071C60.4662 16.4774 65.0011 25.3635 68.8242 31.1839C77.1812 43.9069 78.909 47.8829 78.9357 54.4541C78.988 67.3499 67.8227 76.4434 55.3041 73.7014ZM64.1848 69.8916C65.2841 69.4736 65.642 68.9811 65.5087 68.0694C65.3401 66.9157 64.9969 66.8172 61.0375 66.7837C57.407 66.7532 56.3307 66.5016 54.0203 65.1436C50.9464 63.3368 48.8869 60.5376 47.8383 56.7412C46.9918 53.6765 46.0153 52.4568 44.786 52.9285C42.5081 53.8027 45.2306 62.0023 49.0753 65.8475C52.9564 69.7286 59.7978 71.5594 64.1848 69.8916Z" fill="black"/>
<path d="M34.2554 91.4324C28.5848 90.6561 23.1354 88.3365 19.4042 85.1105C14.3956 80.7807 11.2685 75.3771 9.76726 68.4589C9.27822 66.2055 9.1087 62.3716 9.39511 60.0459C10.0911 54.3956 12.5747 47.9154 17.0054 40.1903C18.8171 37.0314 19.3396 36.1888 23.1981 30.1998C26.1253 25.6564 28.0811 22.4556 29.9484 19.1519C31.5037 16.4006 34.2886 10.6589 35.3425 8.03009C35.8658 6.72515 36.4896 5.25704 36.7287 4.7677C37.2191 3.76426 37.9555 2.91406 38.3339 2.91406C38.6382 2.91406 38.9125 3.62024 38.9125 4.40346C38.9125 6.48084 43.438 15.8727 48.5057 24.312C49.2794 25.6005 49.8788 26.7417 49.8381 26.8479C49.7969 26.9543 48.9025 28.3691 47.8498 29.9921C40.4946 41.3305 38.3204 45.9948 37.729 51.7019C37.1248 57.533 38.4039 62.8788 41.5356 67.6098C43.1532 70.0533 46.7565 73.1861 49.5916 74.6141C52.8988 76.2797 57.6789 77.1723 61.2301 76.7874C61.9642 76.7077 62.5887 76.6661 62.6179 76.6943C62.7029 76.7763 61.7723 78.3672 60.8859 79.6551C56.6411 85.8221 50.4261 89.7836 42.6937 91.2505C41.2705 91.5205 35.7658 91.6391 34.2554 91.4324ZM43.0615 85.8282C44.4419 85.4503 45.6882 84.8193 46.0701 84.305C46.2703 84.0351 46.361 83.6762 46.361 83.1536C46.361 82.1686 46.0952 81.5499 45.5515 81.2688C44.9461 80.9557 42.9764 80.7729 40.1727 80.7696C37.4447 80.7696 34.9303 80.5589 33.648 80.2311C31.3233 79.6367 27.7597 77.4824 25.7121 75.4337C23.2007 72.9209 21.6522 70.1044 20.2993 65.5896C19.058 61.447 17.6845 59.8279 15.9581 60.4728C13.4619 61.4049 14.9469 68.7839 18.9199 75.1897C22.5121 80.9815 28.0784 84.6513 35.2792 85.9748C37.3302 86.3519 41.4313 86.2747 43.0615 85.8282Z" fill="black"/>
</svg>
