<svg width="1500" height="700" viewBox="0 0 1500 700" fill="none" xmlns="http://www.w3.org/2000/svg">
<g clip-path="url(#clip0_439_9970)">
<rect width="1500" height="700" rx="43.0534" fill="#C0E4FB"/>
<rect x="243.28" y="9" width="5.56071" height="4.72664" fill="#44A0D2"/>
<rect x="248.841" y="13.7267" width="5.56071" height="4.72664" fill="#44A0D2"/>
<rect x="237.72" y="13.7267" width="5.56071" height="4.72664" fill="#EFFFF0"/>
<rect x="421.224" y="9" width="5.56071" height="4.72664" fill="#44A0D2"/>
<rect x="426.784" y="13.7267" width="5.56071" height="4.72664" fill="#44A0D2"/>
<rect x="415.663" y="13.7267" width="5.56071" height="4.72664" fill="#EFFFF0"/>
<rect x="599.166" y="9" width="5.56071" height="4.72664" fill="#44A0D2"/>
<rect x="604.727" y="13.7267" width="5.56071" height="4.72664" fill="#44A0D2"/>
<rect x="593.605" y="13.7267" width="5.56071" height="4.72664" fill="#EFFFF0"/>
<rect x="777.108" y="9" width="5.56071" height="4.72664" fill="#44A0D2"/>
<rect x="782.669" y="13.7267" width="5.56071" height="4.72664" fill="#44A0D2"/>
<rect x="771.548" y="13.7267" width="5.56071" height="4.72664" fill="#EFFFF0"/>
<rect x="955.052" y="9" width="5.56071" height="4.72664" fill="#44A0D2"/>
<rect x="960.612" y="13.7267" width="5.56071" height="4.72664" fill="#44A0D2"/>
<rect x="949.491" y="13.7267" width="5.56071" height="4.72664" fill="#EFFFF0"/>
<rect x="1132.99" y="9" width="5.56071" height="4.72664" fill="#44A0D2"/>
<rect x="1138.55" y="13.7267" width="5.56071" height="4.72664" fill="#44A0D2"/>
<rect x="1127.43" y="13.7267" width="5.56071" height="4.72664" fill="#EFFFF0"/>
<rect x="1310.94" y="9" width="5.56071" height="4.72664" fill="#44A0D2"/>
<rect x="1316.5" y="13.7267" width="5.56071" height="4.72664" fill="#44A0D2"/>
<rect x="1305.38" y="13.7267" width="5.56071" height="4.72664" fill="#EFFFF0"/>
<rect x="1488.88" y="9" width="5.56071" height="4.72664" fill="#44A0D2"/>
<rect x="1494.44" y="13.7267" width="5.56071" height="4.72664" fill="#44A0D2"/>
<rect x="1483.32" y="13.7267" width="5.56071" height="4.72664" fill="#EFFFF0"/>
<rect x="65.3379" y="9" width="5.56071" height="4.72664" fill="#44A0D2"/>
<rect x="70.8984" y="13.7267" width="5.56071" height="4.72664" fill="#44A0D2"/>
<rect x="59.7773" y="13.7267" width="5.56071" height="4.72664" fill="#EFFFF0"/>
<rect x="183.504" y="86.9896" width="5.56071" height="4.72664" fill="#44A0D2"/>
<rect x="189.064" y="91.7163" width="5.56071" height="4.72664" fill="#44A0D2"/>
<rect x="177.943" y="91.7163" width="5.56071" height="4.72664" fill="#EFFFF0"/>
<rect x="361.446" y="86.9895" width="5.56071" height="4.72664" fill="#44A0D2"/>
<rect x="367.007" y="91.7162" width="5.56071" height="4.72664" fill="#44A0D2"/>
<rect x="355.886" y="91.7162" width="5.56071" height="4.72664" fill="#EFFFF0"/>
<rect x="539.389" y="86.9895" width="5.56071" height="4.72664" fill="#44A0D2"/>
<rect x="544.949" y="91.7162" width="5.56071" height="4.72664" fill="#44A0D2"/>
<rect x="533.828" y="91.7162" width="5.56071" height="4.72664" fill="#EFFFF0"/>
<rect x="717.332" y="86.9896" width="5.56071" height="4.72664" fill="#44A0D2"/>
<rect x="722.893" y="91.7163" width="5.56071" height="4.72664" fill="#44A0D2"/>
<rect x="711.771" y="91.7163" width="5.56071" height="4.72664" fill="#EFFFF0"/>
<rect x="895.274" y="86.9896" width="5.56071" height="4.72664" fill="#44A0D2"/>
<rect x="900.835" y="91.7163" width="5.56071" height="4.72664" fill="#44A0D2"/>
<rect x="889.714" y="91.7163" width="5.56071" height="4.72664" fill="#EFFFF0"/>
<rect x="1073.22" y="86.9896" width="5.56071" height="4.72664" fill="#44A0D2"/>
<rect x="1078.78" y="91.7163" width="5.56071" height="4.72664" fill="#44A0D2"/>
<rect x="1067.66" y="91.7163" width="5.56071" height="4.72664" fill="#EFFFF0"/>
<rect x="1251.16" y="86.9895" width="5.56071" height="4.72664" fill="#44A0D2"/>
<rect x="1256.72" y="91.7162" width="5.56071" height="4.72664" fill="#44A0D2"/>
<rect x="1245.6" y="91.7162" width="5.56071" height="4.72664" fill="#EFFFF0"/>
<rect x="1429.1" y="86.9896" width="5.56071" height="4.72664" fill="#44A0D2"/>
<rect x="1434.66" y="91.7163" width="5.56071" height="4.72664" fill="#44A0D2"/>
<rect x="1423.54" y="91.7163" width="5.56071" height="4.72664" fill="#EFFFF0"/>
<rect x="5.56055" y="86.9896" width="5.56071" height="4.72664" fill="#44A0D2"/>
<rect x="11.1211" y="91.7163" width="5.56071" height="4.72664" fill="#44A0D2"/>
<rect y="91.7163" width="5.56071" height="4.72664" fill="#EFFFF0"/>
<rect x="243.28" y="164.979" width="5.56071" height="4.72664" fill="#44A0D2"/>
<rect x="248.841" y="169.706" width="5.56071" height="4.72664" fill="#44A0D2"/>
<rect x="237.72" y="169.706" width="5.56071" height="4.72664" fill="#EFFFF0"/>
<rect x="421.224" y="164.979" width="5.56071" height="4.72664" fill="#44A0D2"/>
<rect x="426.784" y="169.706" width="5.56071" height="4.72664" fill="#44A0D2"/>
<rect x="415.663" y="169.706" width="5.56071" height="4.72664" fill="#EFFFF0"/>
<rect x="599.166" y="164.979" width="5.56071" height="4.72664" fill="#44A0D2"/>
<rect x="604.727" y="169.706" width="5.56071" height="4.72664" fill="#44A0D2"/>
<rect x="593.605" y="169.706" width="5.56071" height="4.72664" fill="#EFFFF0"/>
<rect x="777.108" y="164.979" width="5.56071" height="4.72664" fill="#44A0D2"/>
<rect x="782.669" y="169.706" width="5.56071" height="4.72664" fill="#44A0D2"/>
<rect x="771.548" y="169.706" width="5.56071" height="4.72664" fill="#EFFFF0"/>
<rect x="955.052" y="164.979" width="5.56071" height="4.72664" fill="#44A0D2"/>
<rect x="960.612" y="169.706" width="5.56071" height="4.72664" fill="#44A0D2"/>
<rect x="949.491" y="169.706" width="5.56071" height="4.72664" fill="#EFFFF0"/>
<rect x="1132.99" y="164.979" width="5.56071" height="4.72664" fill="#44A0D2"/>
<rect x="1138.55" y="169.706" width="5.56071" height="4.72664" fill="#44A0D2"/>
<rect x="1127.43" y="169.706" width="5.56071" height="4.72664" fill="#EFFFF0"/>
<rect x="1310.94" y="164.979" width="5.56071" height="4.72664" fill="#44A0D2"/>
<rect x="1316.5" y="169.706" width="5.56071" height="4.72664" fill="#44A0D2"/>
<rect x="1305.38" y="169.706" width="5.56071" height="4.72664" fill="#EFFFF0"/>
<rect x="1488.88" y="164.979" width="5.56071" height="4.72664" fill="#44A0D2"/>
<rect x="1494.44" y="169.706" width="5.56071" height="4.72664" fill="#44A0D2"/>
<rect x="1483.32" y="169.706" width="5.56071" height="4.72664" fill="#EFFFF0"/>
<rect x="65.3379" y="164.979" width="5.56071" height="4.72664" fill="#44A0D2"/>
<rect x="70.8984" y="169.706" width="5.56071" height="4.72664" fill="#44A0D2"/>
<rect x="59.7773" y="169.706" width="5.56071" height="4.72664" fill="#EFFFF0"/>
<rect x="243.28" y="311.505" width="5.56071" height="4.72664" fill="#44A0D2"/>
<rect x="248.841" y="316.232" width="5.56071" height="4.72664" fill="#44A0D2"/>
<rect x="237.72" y="316.232" width="5.56071" height="4.72664" fill="#EFFFF0"/>
<rect x="421.224" y="311.505" width="5.56071" height="4.72664" fill="#44A0D2"/>
<rect x="426.784" y="316.232" width="5.56071" height="4.72664" fill="#44A0D2"/>
<rect x="415.663" y="316.232" width="5.56071" height="4.72664" fill="#EFFFF0"/>
<rect x="599.166" y="311.505" width="5.56071" height="4.72664" fill="#44A0D2"/>
<rect x="604.727" y="316.232" width="5.56071" height="4.72664" fill="#44A0D2"/>
<rect x="593.605" y="316.232" width="5.56071" height="4.72664" fill="#EFFFF0"/>
<rect x="777.108" y="311.505" width="5.56071" height="4.72664" fill="#44A0D2"/>
<rect x="782.669" y="316.232" width="5.56071" height="4.72664" fill="#44A0D2"/>
<rect x="771.548" y="316.232" width="5.56071" height="4.72664" fill="#EFFFF0"/>
<rect x="955.052" y="311.505" width="5.56071" height="4.72664" fill="#44A0D2"/>
<rect x="960.612" y="316.232" width="5.56071" height="4.72664" fill="#44A0D2"/>
<rect x="949.491" y="316.232" width="5.56071" height="4.72664" fill="#EFFFF0"/>
<rect x="1132.99" y="311.505" width="5.56071" height="4.72664" fill="#44A0D2"/>
<rect x="1138.55" y="316.232" width="5.56071" height="4.72664" fill="#44A0D2"/>
<rect x="1127.43" y="316.232" width="5.56071" height="4.72664" fill="#EFFFF0"/>
<rect x="1310.94" y="311.505" width="5.56071" height="4.72664" fill="#44A0D2"/>
<rect x="1316.5" y="316.232" width="5.56071" height="4.72664" fill="#44A0D2"/>
<rect x="1305.38" y="316.232" width="5.56071" height="4.72664" fill="#EFFFF0"/>
<rect x="1488.88" y="311.505" width="5.56071" height="4.72664" fill="#44A0D2"/>
<rect x="1494.44" y="316.232" width="5.56071" height="4.72664" fill="#44A0D2"/>
<rect x="1483.32" y="316.232" width="5.56071" height="4.72664" fill="#EFFFF0"/>
<rect x="65.3379" y="311.505" width="5.56071" height="4.72664" fill="#44A0D2"/>
<rect x="70.8984" y="316.232" width="5.56071" height="4.72664" fill="#44A0D2"/>
<rect x="59.7773" y="316.232" width="5.56071" height="4.72664" fill="#EFFFF0"/>
<rect x="243.28" y="458.031" width="5.56071" height="4.72664" fill="#44A0D2"/>
<rect x="248.841" y="462.758" width="5.56071" height="4.72664" fill="#44A0D2"/>
<rect x="237.72" y="462.758" width="5.56071" height="4.72664" fill="#EFFFF0"/>
<rect x="421.224" y="458.031" width="5.56071" height="4.72664" fill="#44A0D2"/>
<rect x="426.784" y="462.758" width="5.56071" height="4.72664" fill="#44A0D2"/>
<rect x="415.663" y="462.758" width="5.56071" height="4.72664" fill="#EFFFF0"/>
<rect x="599.166" y="458.031" width="5.56071" height="4.72664" fill="#44A0D2"/>
<rect x="604.727" y="462.758" width="5.56071" height="4.72664" fill="#44A0D2"/>
<rect x="593.605" y="462.758" width="5.56071" height="4.72664" fill="#EFFFF0"/>
<rect x="777.108" y="458.031" width="5.56071" height="4.72664" fill="#44A0D2"/>
<rect x="782.669" y="462.758" width="5.56071" height="4.72664" fill="#44A0D2"/>
<rect x="771.548" y="462.758" width="5.56071" height="4.72664" fill="#EFFFF0"/>
<rect x="955.052" y="458.031" width="5.56071" height="4.72664" fill="#44A0D2"/>
<rect x="960.612" y="462.758" width="5.56071" height="4.72664" fill="#44A0D2"/>
<rect x="949.491" y="462.758" width="5.56071" height="4.72664" fill="#EFFFF0"/>
<rect x="1132.99" y="458.031" width="5.56071" height="4.72664" fill="#44A0D2"/>
<rect x="1138.55" y="462.758" width="5.56071" height="4.72664" fill="#44A0D2"/>
<rect x="1127.43" y="462.758" width="5.56071" height="4.72664" fill="#EFFFF0"/>
<rect x="1310.94" y="458.031" width="5.56071" height="4.72664" fill="#44A0D2"/>
<rect x="1316.5" y="462.758" width="5.56071" height="4.72664" fill="#44A0D2"/>
<rect x="1305.38" y="462.758" width="5.56071" height="4.72664" fill="#EFFFF0"/>
<rect x="1488.88" y="458.031" width="5.56071" height="4.72664" fill="#44A0D2"/>
<rect x="1494.44" y="462.758" width="5.56071" height="4.72664" fill="#44A0D2"/>
<rect x="1483.32" y="462.758" width="5.56071" height="4.72664" fill="#EFFFF0"/>
<rect x="65.3379" y="458.031" width="5.56071" height="4.72664" fill="#44A0D2"/>
<rect x="70.8984" y="462.758" width="5.56071" height="4.72664" fill="#44A0D2"/>
<rect x="59.7773" y="462.758" width="5.56071" height="4.72664" fill="#EFFFF0"/>
<rect x="243.28" y="604.557" width="5.56071" height="4.72664" fill="#44A0D2"/>
<rect x="248.841" y="609.284" width="5.56071" height="4.72664" fill="#44A0D2"/>
<rect x="237.72" y="609.284" width="5.56071" height="4.72664" fill="#EFFFF0"/>
<rect x="421.224" y="604.557" width="5.56071" height="4.72664" fill="#44A0D2"/>
<rect x="426.784" y="609.284" width="5.56071" height="4.72664" fill="#44A0D2"/>
<rect x="415.663" y="609.284" width="5.56071" height="4.72664" fill="#EFFFF0"/>
<rect x="599.166" y="604.557" width="5.56071" height="4.72664" fill="#44A0D2"/>
<rect x="604.727" y="609.284" width="5.56071" height="4.72664" fill="#44A0D2"/>
<rect x="593.605" y="609.284" width="5.56071" height="4.72664" fill="#EFFFF0"/>
<rect x="777.108" y="604.557" width="5.56071" height="4.72664" fill="#44A0D2"/>
<rect x="782.669" y="609.284" width="5.56071" height="4.72664" fill="#44A0D2"/>
<rect x="771.548" y="609.284" width="5.56071" height="4.72664" fill="#EFFFF0"/>
<rect x="955.052" y="604.557" width="5.56071" height="4.72664" fill="#44A0D2"/>
<rect x="960.612" y="609.284" width="5.56071" height="4.72664" fill="#44A0D2"/>
<rect x="949.491" y="609.284" width="5.56071" height="4.72664" fill="#EFFFF0"/>
<rect x="1132.99" y="604.557" width="5.56071" height="4.72664" fill="#44A0D2"/>
<rect x="1138.55" y="609.284" width="5.56071" height="4.72664" fill="#44A0D2"/>
<rect x="1127.43" y="609.284" width="5.56071" height="4.72664" fill="#EFFFF0"/>
<rect x="1310.94" y="604.557" width="5.56071" height="4.72664" fill="#44A0D2"/>
<rect x="1316.5" y="609.284" width="5.56071" height="4.72664" fill="#44A0D2"/>
<rect x="1305.38" y="609.284" width="5.56071" height="4.72664" fill="#EFFFF0"/>
<rect x="1488.88" y="604.557" width="5.56071" height="4.72664" fill="#44A0D2"/>
<rect x="1494.44" y="609.284" width="5.56071" height="4.72664" fill="#44A0D2"/>
<rect x="1483.32" y="609.284" width="5.56071" height="4.72664" fill="#EFFFF0"/>
<rect x="65.3379" y="604.557" width="5.56071" height="4.72664" fill="#44A0D2"/>
<rect x="70.8984" y="609.284" width="5.56071" height="4.72664" fill="#44A0D2"/>
<rect x="59.7773" y="609.284" width="5.56071" height="4.72664" fill="#EFFFF0"/>
<rect x="183.504" y="242.969" width="5.56071" height="4.72664" fill="#44A0D2"/>
<rect x="189.064" y="247.696" width="5.56071" height="4.72664" fill="#44A0D2"/>
<rect x="177.943" y="247.696" width="5.56071" height="4.72664" fill="#EFFFF0"/>
<rect x="361.446" y="242.969" width="5.56071" height="4.72664" fill="#44A0D2"/>
<rect x="367.007" y="247.695" width="5.56071" height="4.72664" fill="#44A0D2"/>
<rect x="355.886" y="247.695" width="5.56071" height="4.72664" fill="#EFFFF0"/>
<rect x="539.389" y="242.969" width="5.56071" height="4.72664" fill="#44A0D2"/>
<rect x="544.949" y="247.695" width="5.56071" height="4.72664" fill="#44A0D2"/>
<rect x="533.828" y="247.695" width="5.56071" height="4.72664" fill="#EFFFF0"/>
<rect x="717.332" y="242.969" width="5.56071" height="4.72664" fill="#44A0D2"/>
<rect x="722.893" y="247.696" width="5.56071" height="4.72664" fill="#44A0D2"/>
<rect x="711.771" y="247.696" width="5.56071" height="4.72664" fill="#EFFFF0"/>
<rect x="895.274" y="242.969" width="5.56071" height="4.72664" fill="#44A0D2"/>
<rect x="900.835" y="247.696" width="5.56071" height="4.72664" fill="#44A0D2"/>
<rect x="889.714" y="247.696" width="5.56071" height="4.72664" fill="#EFFFF0"/>
<rect x="1073.22" y="242.969" width="5.56071" height="4.72664" fill="#44A0D2"/>
<rect x="1078.78" y="247.696" width="5.56071" height="4.72664" fill="#44A0D2"/>
<rect x="1067.66" y="247.696" width="5.56071" height="4.72664" fill="#EFFFF0"/>
<rect x="1251.16" y="242.969" width="5.56071" height="4.72664" fill="#44A0D2"/>
<rect x="1256.72" y="247.695" width="5.56071" height="4.72664" fill="#44A0D2"/>
<rect x="1245.6" y="247.695" width="5.56071" height="4.72664" fill="#EFFFF0"/>
<rect x="1429.1" y="242.969" width="5.56071" height="4.72664" fill="#44A0D2"/>
<rect x="1434.66" y="247.696" width="5.56071" height="4.72664" fill="#44A0D2"/>
<rect x="1423.54" y="247.696" width="5.56071" height="4.72664" fill="#EFFFF0"/>
<rect x="5.56055" y="242.969" width="5.56071" height="4.72664" fill="#44A0D2"/>
<rect x="11.1211" y="247.696" width="5.56071" height="4.72664" fill="#44A0D2"/>
<rect y="247.696" width="5.56071" height="4.72664" fill="#EFFFF0"/>
<rect x="183.504" y="389.495" width="5.56071" height="4.72664" fill="#44A0D2"/>
<rect x="189.064" y="394.221" width="5.56071" height="4.72664" fill="#44A0D2"/>
<rect x="177.943" y="394.221" width="5.56071" height="4.72664" fill="#EFFFF0"/>
<rect x="361.446" y="389.495" width="5.56071" height="4.72664" fill="#44A0D2"/>
<rect x="367.007" y="394.221" width="5.56071" height="4.72664" fill="#44A0D2"/>
<rect x="355.886" y="394.221" width="5.56071" height="4.72664" fill="#EFFFF0"/>
<rect x="539.389" y="389.495" width="5.56071" height="4.72664" fill="#44A0D2"/>
<rect x="544.949" y="394.221" width="5.56071" height="4.72664" fill="#44A0D2"/>
<rect x="533.828" y="394.221" width="5.56071" height="4.72664" fill="#EFFFF0"/>
<rect x="717.332" y="389.495" width="5.56071" height="4.72664" fill="#44A0D2"/>
<rect x="722.893" y="394.221" width="5.56071" height="4.72664" fill="#44A0D2"/>
<rect x="711.771" y="394.221" width="5.56071" height="4.72664" fill="#EFFFF0"/>
<rect x="895.274" y="389.495" width="5.56071" height="4.72664" fill="#44A0D2"/>
<rect x="900.835" y="394.221" width="5.56071" height="4.72664" fill="#44A0D2"/>
<rect x="889.714" y="394.221" width="5.56071" height="4.72664" fill="#EFFFF0"/>
<rect x="1073.22" y="389.495" width="5.56071" height="4.72664" fill="#44A0D2"/>
<rect x="1078.78" y="394.221" width="5.56071" height="4.72664" fill="#44A0D2"/>
<rect x="1067.66" y="394.221" width="5.56071" height="4.72664" fill="#EFFFF0"/>
<rect x="1251.16" y="389.495" width="5.56071" height="4.72664" fill="#44A0D2"/>
<rect x="1256.72" y="394.221" width="5.56071" height="4.72664" fill="#44A0D2"/>
<rect x="1245.6" y="394.221" width="5.56071" height="4.72664" fill="#EFFFF0"/>
<rect x="1429.1" y="389.495" width="5.56071" height="4.72664" fill="#44A0D2"/>
<rect x="1434.66" y="394.221" width="5.56071" height="4.72664" fill="#44A0D2"/>
<rect x="1423.54" y="394.221" width="5.56071" height="4.72664" fill="#EFFFF0"/>
<rect x="5.56055" y="389.495" width="5.56071" height="4.72664" fill="#44A0D2"/>
<rect x="11.1211" y="394.221" width="5.56071" height="4.72664" fill="#44A0D2"/>
<rect y="394.221" width="5.56071" height="4.72664" fill="#EFFFF0"/>
<rect x="183.504" y="536.021" width="5.56071" height="4.72664" fill="#44A0D2"/>
<rect x="189.064" y="540.747" width="5.56071" height="4.72664" fill="#44A0D2"/>
<rect x="177.943" y="540.747" width="5.56071" height="4.72664" fill="#EFFFF0"/>
<rect x="361.446" y="536.021" width="5.56071" height="4.72664" fill="#44A0D2"/>
<rect x="367.007" y="540.747" width="5.56071" height="4.72664" fill="#44A0D2"/>
<rect x="355.886" y="540.747" width="5.56071" height="4.72664" fill="#EFFFF0"/>
<rect x="539.389" y="536.021" width="5.56071" height="4.72664" fill="#44A0D2"/>
<rect x="544.949" y="540.747" width="5.56071" height="4.72664" fill="#44A0D2"/>
<rect x="533.828" y="540.747" width="5.56071" height="4.72664" fill="#EFFFF0"/>
<rect x="717.332" y="536.021" width="5.56071" height="4.72664" fill="#44A0D2"/>
<rect x="722.893" y="540.747" width="5.56071" height="4.72664" fill="#44A0D2"/>
<rect x="711.771" y="540.747" width="5.56071" height="4.72664" fill="#EFFFF0"/>
<rect x="895.274" y="536.021" width="5.56071" height="4.72664" fill="#44A0D2"/>
<rect x="900.835" y="540.747" width="5.56071" height="4.72664" fill="#44A0D2"/>
<rect x="889.714" y="540.747" width="5.56071" height="4.72664" fill="#EFFFF0"/>
<rect x="1073.22" y="536.021" width="5.56071" height="4.72664" fill="#44A0D2"/>
<rect x="1078.78" y="540.747" width="5.56071" height="4.72664" fill="#44A0D2"/>
<rect x="1067.66" y="540.747" width="5.56071" height="4.72664" fill="#EFFFF0"/>
<rect x="1251.16" y="536.021" width="5.56071" height="4.72664" fill="#44A0D2"/>
<rect x="1256.72" y="540.747" width="5.56071" height="4.72664" fill="#44A0D2"/>
<rect x="1245.6" y="540.747" width="5.56071" height="4.72664" fill="#EFFFF0"/>
<rect x="1429.1" y="536.021" width="5.56071" height="4.72664" fill="#44A0D2"/>
<rect x="1434.66" y="540.747" width="5.56071" height="4.72664" fill="#44A0D2"/>
<rect x="1423.54" y="540.747" width="5.56071" height="4.72664" fill="#EFFFF0"/>
<rect x="5.56055" y="536.021" width="5.56071" height="4.72664" fill="#44A0D2"/>
<rect x="11.1211" y="540.747" width="5.56071" height="4.72664" fill="#44A0D2"/>
<rect y="540.747" width="5.56071" height="4.72664" fill="#EFFFF0"/>
<rect x="183.504" y="682.546" width="5.56071" height="4.72664" fill="#44A0D2"/>
<rect x="189.064" y="687.273" width="5.56071" height="4.72664" fill="#44A0D2"/>
<rect x="177.943" y="687.273" width="5.56071" height="4.72664" fill="#EFFFF0"/>
<rect x="361.446" y="682.546" width="5.56071" height="4.72664" fill="#44A0D2"/>
<rect x="367.007" y="687.273" width="5.56071" height="4.72664" fill="#44A0D2"/>
<rect x="355.886" y="687.273" width="5.56071" height="4.72664" fill="#EFFFF0"/>
<rect x="539.389" y="682.546" width="5.56071" height="4.72664" fill="#44A0D2"/>
<rect x="544.949" y="687.273" width="5.56071" height="4.72664" fill="#44A0D2"/>
<rect x="533.828" y="687.273" width="5.56071" height="4.72664" fill="#EFFFF0"/>
<rect x="717.332" y="682.546" width="5.56071" height="4.72664" fill="#44A0D2"/>
<rect x="722.893" y="687.273" width="5.56071" height="4.72664" fill="#44A0D2"/>
<rect x="711.771" y="687.273" width="5.56071" height="4.72664" fill="#EFFFF0"/>
<rect x="895.274" y="682.546" width="5.56071" height="4.72664" fill="#44A0D2"/>
<rect x="900.835" y="687.273" width="5.56071" height="4.72664" fill="#44A0D2"/>
<rect x="889.714" y="687.273" width="5.56071" height="4.72664" fill="#EFFFF0"/>
<rect x="1073.22" y="682.546" width="5.56071" height="4.72664" fill="#44A0D2"/>
<rect x="1078.78" y="687.273" width="5.56071" height="4.72664" fill="#44A0D2"/>
<rect x="1067.66" y="687.273" width="5.56071" height="4.72664" fill="#EFFFF0"/>
<rect x="1251.16" y="682.546" width="5.56071" height="4.72664" fill="#44A0D2"/>
<rect x="1256.72" y="687.273" width="5.56071" height="4.72664" fill="#44A0D2"/>
<rect x="1245.6" y="687.273" width="5.56071" height="4.72664" fill="#EFFFF0"/>
<rect x="1429.1" y="682.546" width="5.56071" height="4.72664" fill="#44A0D2"/>
<rect x="1434.66" y="687.273" width="5.56071" height="4.72664" fill="#44A0D2"/>
<rect x="1423.54" y="687.273" width="5.56071" height="4.72664" fill="#EFFFF0"/>
<rect x="5.56055" y="682.547" width="5.56071" height="4.72664" fill="#44A0D2"/>
<rect x="11.1211" y="687.273" width="5.56071" height="4.72664" fill="#44A0D2"/>
<rect y="687.273" width="5.56071" height="4.72664" fill="#EFFFF0"/>
<rect x="739.809" y="9" width="19.8479" height="683" fill="#C0E4FB"/>
<rect x="652.245" y="238.006" width="193.809" height="212.935" fill="#C0E4FB"/>
<path fill-rule="evenodd" clip-rule="evenodd" d="M740.329 280.471V146.768C632.176 151.686 546 241.019 546 350.5C546 459.981 632.176 549.314 740.329 554.232V421.314C705.419 416.882 678.426 387.043 678.426 350.892C678.426 314.742 705.419 284.903 740.329 280.471ZM953.465 350.5L953.465 350.819V350.181L953.465 350.5Z" fill="#82C2E6"/>
<path fill-rule="evenodd" clip-rule="evenodd" d="M759.135 420.529L759.135 554.232C867.289 549.314 953.465 459.981 953.465 350.5C953.465 241.018 867.289 151.686 759.135 146.767V279.687C794.045 284.118 821.039 313.957 821.039 350.108C821.039 386.258 794.045 416.098 759.135 420.529Z" fill="#82C2E6"/>
<ellipse cx="749.341" cy="350.892" rx="51.3787" ry="51.3249" transform="rotate(-90 749.341 350.892)" fill="#82C2E6"/>
</g>
<rect x="3.58779" y="3.58779" width="1492.82" height="692.824" rx="39.4656" stroke="black" stroke-width="7.17557"/>
<defs>
<clipPath id="clip0_439_9970">
<rect width="1500" height="700" rx="43.0534" fill="white"/>
</clipPath>
</defs>
</svg>
