<svg width="716" height="716" viewBox="0 0 716 716" fill="none" xmlns="http://www.w3.org/2000/svg">
<g filter="url(#filter0_f_3_21973)">
<path d="M604.61 604.61L454.93 500.198L498.221 677.488L396.367 526.056L372.69 707.013L332.417 529.012L244.97 689.197L271.718 508.668L132.311 626.446L222.467 467.77L49.9272 527.235L191.316 411.843L8.9458 404.964L182.471 348.439L14.9016 276.145L197.128 286.122L66.9898 158.176L233.307 233.307L158.176 66.9901L286.122 197.128L276.145 14.9016L348.439 182.472L404.963 8.94603L411.843 191.316L527.235 49.927L467.77 222.467L626.446 132.311L508.668 271.719L689.197 244.97L529.012 332.418L707.013 372.69L526.056 396.367L677.488 498.221L500.197 454.93L604.61 604.61Z" fill="white" fill-opacity="0.168627"/>
</g>
<defs>
<filter id="filter0_f_3_21973" x="0.945801" y="0.94603" width="714.067" height="714.067" filterUnits="userSpaceOnUse" color-interpolation-filters="sRGB">
<feFlood flood-opacity="0" result="BackgroundImageFix"/>
<feBlend mode="normal" in="SourceGraphic" in2="BackgroundImageFix" result="shape"/>
<feGaussianBlur stdDeviation="4" result="effect1_foregroundBlur_3_21973"/>
</filter>
</defs>
</svg>
