<svg width="245" height="245" viewBox="0 0 245 245" fill="none" xmlns="http://www.w3.org/2000/svg">
<path d="M100.1 222.6C155.384 234.971 210.23 200.184 222.6 144.9C234.971 89.6157 200.184 34.7706 144.9 22.3996C89.6157 10.0286 34.7707 44.8165 22.3997 100.1C10.0287 155.384 44.8165 210.229 100.1 222.6Z" fill="#1A1A1A"/>
<path d="M41.9803 86.5095C45.3958 78.021 54.8045 65.0361 62.8022 57.7737C79.47 42.638 100.106 34.4036 122.724 33.863C134.14 33.5901 154.672 38.7979 164.649 44.4969C195.096 61.8882 212.442 91.8618 211.67 125.747L211.576 129.84L181.797 123.176L152.017 116.512L148.342 109.812C143.661 101.276 138.012 96.9826 128.691 94.8762C119.859 92.8803 109.444 95.5588 103.877 101.258L100.284 104.936L70.1391 98.1903L39.9941 91.4447L41.9803 86.5095Z" fill="#AA0000"/>
<path d="M96.5672 208.181C78.1879 202.274 62.6563 191.117 51.071 175.499C39.3713 159.726 33.3731 140.417 33.929 120.315C34.0209 117.013 34.0946 113.857 34.0941 113.303L34.0936 112.296L64.0416 119L93.9902 125.703L95.0159 129.687C97.5578 139.558 105.252 147.724 114.442 150.306C121.193 152.202 126.229 152.088 132.473 149.897C137.466 148.144 143.496 143.571 146.29 139.417L147.336 137.86L177.461 144.486L207.585 151.111L206.92 152.867C194.85 184.623 168.437 206.191 135.597 211.108C123.104 212.978 107.968 211.843 96.57 208.18L96.5672 208.181Z" fill="white"/>
<path d="M118.671 141.169C128.372 143.34 137.997 137.235 140.168 127.533C142.339 117.832 136.234 108.207 126.533 106.036C116.831 103.866 107.206 109.97 105.036 119.672C102.865 129.373 108.969 138.998 118.671 141.169Z" fill="white"/>
</svg>
